<svg width="48" height="48" viewBox="0 0 48 48" fill="none" xmlns="http://www.w3.org/2000/svg">
<circle cx="23.998" cy="24" r="24" fill="url(#paint0_radial_864_3519)"/>
<path d="M18.8147 30.144C18.5267 30.144 18.2927 30.078 18.1127 29.946C17.9447 29.814 17.8427 29.64 17.8067 29.424C17.7707 29.196 17.8127 28.944 17.9327 28.668L22.6847 18.138C22.8407 17.79 23.0267 17.544 23.2427 17.4C23.4707 17.244 23.7287 17.166 24.0167 17.166C24.2927 17.166 24.5387 17.244 24.7547 17.4C24.9827 17.544 25.1747 17.79 25.3307 18.138L30.1007 28.668C30.2327 28.944 30.2807 29.196 30.2447 29.424C30.2087 29.652 30.1067 29.832 29.9387 29.964C29.7707 30.084 29.5487 30.144 29.2727 30.144C28.9367 30.144 28.6727 30.066 28.4807 29.91C28.3007 29.742 28.1387 29.49 27.9947 29.154L26.8247 26.436L27.7967 27.066H20.2007L21.1727 26.436L20.0207 29.154C19.8647 29.502 19.7027 29.754 19.5347 29.91C19.3667 30.066 19.1267 30.144 18.8147 30.144ZM23.9807 19.812L21.4607 25.806L20.9927 25.23H27.0047L26.5547 25.806L24.0167 19.812H23.9807Z" fill="white"/>
<defs>
<radialGradient id="paint0_radial_864_3519" cx="0" cy="0" r="1" gradientUnits="userSpaceOnUse" gradientTransform="translate(1.49902) rotate(51.0439) scale(58.4341)">
<stop offset="0.360589" stop-color="#DC77FF"/>
<stop offset="1" stop-color="#2BBFFF"/>
</radialGradient>
</defs>
</svg>
