<svg width="30" height="30" viewBox="0 0 30 30" fill="none" xmlns="http://www.w3.org/2000/svg">
<circle cx="15" cy="15" r="15" fill="url(#paint0_radial_864_1471)"/>
<mask id="mask0_864_1471" style="mask-type:alpha" maskUnits="userSpaceOnUse" x="0" y="0" width="30" height="30">
<circle cx="15" cy="15" r="15" fill="#C4C4C4"/>
</mask>
<g mask="url(#mask0_864_1471)">
<path d="M19.086 21.9106L15.0002 25.3512L10.9144 21.9106C8.79907 20.1292 7.57813 17.5048 7.57813 14.7393V13.6321C7.57808 9.53296 10.9011 6.20996 15.0002 6.20996C19.0994 6.20996 22.4223 9.53296 22.4223 13.6321V14.7393C22.4224 17.5048 21.2014 20.1292 19.086 21.9106Z" fill="url(#paint1_linear_864_1471)"/>
<path d="M22.6932 24.0756L18.5761 22.8647C18.0774 22.718 17.7349 22.2602 17.7349 21.7404V19.8828H12.2659V21.7404C12.2659 22.2603 11.9234 22.718 11.4246 22.8647L7.30748 24.0756C6.31 24.369 5.625 25.2844 5.625 26.3242V29.2581C5.625 29.9053 6.1497 30.43 6.79692 30.43H23.2037C23.8509 30.43 24.3756 29.9053 24.3756 29.2581V26.3242C24.3757 25.2844 23.6907 24.369 22.6932 24.0756Z" fill="url(#paint2_linear_864_1471)"/>
<path d="M22.6932 24.0753L18.5761 22.8644C18.5065 22.8439 18.4408 22.8161 18.3778 22.7842L15.0002 25.3514L11.6231 22.7842C11.5601 22.8161 11.4943 22.8439 11.4247 22.8644L7.30748 24.0753C6.31 24.3687 5.625 25.2841 5.625 26.3239V29.2578C5.625 29.905 6.1497 30.4297 6.79692 30.4297H23.2037C23.8509 30.4297 24.3756 29.905 24.3756 29.2578V26.3239C24.3757 25.2841 23.6907 24.3687 22.6932 24.0753Z" fill="url(#paint3_linear_864_1471)"/>
<path d="M12.2656 20.7546C13.0863 21.1929 14.017 21.4454 15.0001 21.4454C15.9832 21.4454 16.9139 21.1929 17.7346 20.7546V19.8828H12.2656V20.7546Z" fill="url(#paint4_linear_864_1471)"/>
<path d="M20.2738 14.0236H20.0785V9.72656H9.92187V14.0236H9.72657C9.18722 14.0236 8.75 14.4608 8.75 15.0002C8.75 15.5395 9.18722 15.9767 9.72657 15.9767H9.94162C10.1417 18.5983 12.3274 20.6644 15.0002 20.6644C17.673 20.6644 19.8586 18.5983 20.0587 15.9767H20.2738C20.8131 15.9767 21.2504 15.5395 21.2504 15.0002C21.2504 14.4608 20.8131 14.0236 20.2738 14.0236Z" fill="url(#paint5_linear_864_1471)"/>
<path d="M20.0785 9.72656H9.92188V14.0236H9.78234C9.27149 14.0236 8.80596 14.3912 8.75506 14.8994C8.69651 15.484 9.15396 15.9768 9.72658 15.9768H9.94163C10.1417 18.5983 12.3274 20.6645 15.0002 20.6645C15.2674 20.6645 15.528 20.6384 15.7839 20.5986C13.35 20.223 11.4844 18.1253 11.4844 15.5861V12.7798C11.4844 12.2705 11.9614 11.9019 12.4558 12.0238C13.0893 12.1799 13.7522 12.3107 14.433 12.4004C14.4799 12.4065 14.5262 12.4095 14.5716 12.4095C14.9213 12.4095 15.2477 12.2353 15.4448 11.9436C15.5923 11.7253 15.6517 11.4638 15.6177 11.2092C16.7992 11.5165 18.5762 12.1894 20.0784 13.5862V9.72656H20.0785Z" fill="url(#paint6_linear_864_1471)"/>
<path d="M12.6563 15.2295C12.4403 15.2295 12.2656 15.0546 12.2656 14.8389V14.4483C12.2656 14.2325 12.4403 14.0576 12.6563 14.0576C12.8722 14.0576 13.0469 14.2325 13.0469 14.4483V14.8389C13.0469 15.0546 12.8722 15.2295 12.6563 15.2295Z" fill="url(#paint7_radial_864_1471)"/>
<path d="M17.3438 15.2295C17.1278 15.2295 16.9531 15.0546 16.9531 14.8389V14.4483C16.9531 14.2325 17.1278 14.0576 17.3438 14.0576C17.5597 14.0576 17.7344 14.2325 17.7344 14.4483V14.8389C17.7344 15.0546 17.5597 15.2295 17.3438 15.2295Z" fill="url(#paint8_radial_864_1471)"/>
<path d="M13.0469 13.6319H12.2656C12.0497 13.6319 11.875 13.4569 11.875 13.2412C11.875 13.0255 12.0497 12.8506 12.2656 12.8506H13.0469C13.2628 12.8506 13.4376 13.0255 13.4376 13.2412C13.4376 13.4569 13.2628 13.6319 13.0469 13.6319Z" fill="url(#paint9_linear_864_1471)"/>
<path d="M17.7344 13.6319H16.9531C16.7372 13.6319 16.5625 13.4569 16.5625 13.2412C16.5625 13.0255 16.7372 12.8506 16.9531 12.8506H17.7344C17.9503 12.8506 18.1251 13.0255 18.1251 13.2412C18.1251 13.4569 17.9504 13.6319 17.7344 13.6319Z" fill="url(#paint10_linear_864_1471)"/>
<path d="M15 17.9296C14.4141 17.9296 13.8732 17.7416 13.5538 17.4265C13.4001 17.275 13.3986 17.0276 13.5501 16.8741C13.7015 16.7206 13.9495 16.7188 14.1024 16.8703C14.2325 16.9987 14.5457 17.1484 15.0001 17.1484C15.4544 17.1484 15.7676 16.9987 15.8977 16.8703C16.0507 16.7188 16.2987 16.7206 16.4501 16.8741C16.6016 17.0276 16.6 17.275 16.4463 17.4265C16.1269 17.7416 15.586 17.9296 15 17.9296Z" fill="#B67F5F"/>
<path d="M9.14062 14.2074L10.0132 14.1047C10.4067 14.0584 10.7032 13.725 10.7032 13.3288V9.72656H9.14062V14.2074V14.2074Z" fill="url(#paint11_linear_864_1471)"/>
<path d="M20.8594 14.2074L19.9869 14.1047C19.5934 14.0584 19.2969 13.725 19.2969 13.3288V9.72656H20.8594V14.2074V14.2074Z" fill="url(#paint12_linear_864_1471)"/>
<path d="M21.4142 9.91058C20.1289 7.70008 17.7407 6.20996 14.9995 6.20996C12.3209 6.20996 9.98094 7.6336 8.67578 9.76066V9.87515C9.93465 10.4468 12.1355 11.309 14.5343 11.6249C14.7433 11.6524 14.9035 11.4402 14.8248 11.2447L14.5763 10.6266C14.4949 10.4244 14.6666 10.2127 14.8814 10.2497C15.978 10.4385 18.7218 11.1041 20.859 13.2414L21.4142 9.91058Z" fill="url(#paint13_linear_864_1471)"/>
<path d="M14.9995 6.20996C12.3209 6.20996 9.98094 7.6336 8.67578 9.76066V9.87515C8.97106 10.0092 9.32218 10.1599 9.71157 10.3152C10.8187 8.55653 12.7722 7.38188 14.9995 7.38188C17.9142 7.38188 20.3622 9.3903 21.0503 12.094L21.4142 9.91058C20.1289 7.70008 17.7407 6.20996 14.9995 6.20996Z" fill="url(#paint14_linear_864_1471)"/>
<path d="M15.0003 5.81934C10.6922 5.81934 7.1875 9.32423 7.1875 13.6321V14.7394C7.1875 17.6266 8.4544 20.3493 10.6628 22.2096L14.6096 25.5333V30.4296H15.3909V25.5332L19.3377 22.2096V22.2094C21.5461 20.3493 22.8131 17.6266 22.8131 14.7393V13.6321C22.8131 9.32423 19.3084 5.81934 15.0003 5.81934ZM22.0318 14.7393C22.0318 17.3956 20.8664 19.9004 18.8342 21.6117L15.0003 24.8406L11.1664 21.6119C9.13421 19.9004 7.96878 17.3956 7.96878 14.7393V13.6321C7.96878 9.7549 11.1233 6.60061 15.0003 6.60061C18.8773 6.60061 22.0318 9.7549 22.0318 13.6321V14.7393Z" fill="url(#paint15_linear_864_1471)"/>
<path d="M15 25.3525C14.5703 25.3525 14.2188 25.7041 14.2188 26.1338V26.9151C14.2188 27.3448 14.5703 27.6964 15 27.6964C15.4297 27.6964 15.7813 27.3448 15.7813 26.9151V26.1338C15.7813 25.7041 15.4297 25.3525 15 25.3525Z" fill="url(#paint16_linear_864_1471)"/>
<path d="M8.87539 26.9379L6.31746 24.6641C6.13044 24.8502 5.97855 25.0677 5.86328 25.3056L8.3566 27.5219C8.60646 27.7441 8.74993 28.0633 8.74993 28.3978V30.4305H9.53121V28.3978C9.53116 27.8403 9.29237 27.3081 8.87539 26.9379Z" fill="url(#paint17_linear_864_1471)"/>
<path d="M21.1245 26.9379L23.6824 24.6641C23.8695 24.8502 24.0214 25.0677 24.1366 25.3056L21.6434 27.5219C21.3935 27.7441 21.25 28.0633 21.25 28.3978V30.4305H20.4688V28.3978C20.4688 27.8403 20.7075 27.3081 21.1245 26.9379Z" fill="url(#paint18_linear_864_1471)"/>
</g>
<defs>
<radialGradient id="paint0_radial_864_1471" cx="0" cy="0" r="1" gradientUnits="userSpaceOnUse" gradientTransform="translate(4.6875 3.125) rotate(50.4206) scale(30.409)">
<stop offset="0.552731" stop-color="#E3D7D2"/>
<stop offset="1" stop-color="#D3AE9E"/>
</radialGradient>
<linearGradient id="paint1_linear_864_1471" x1="15.0002" y1="6.20996" x2="15.0002" y2="25.3512" gradientUnits="userSpaceOnUse">
<stop stop-color="#78A8EB"/>
<stop offset="1" stop-color="#99BBEB"/>
</linearGradient>
<linearGradient id="paint2_linear_864_1471" x1="12.5006" y1="21.5625" x2="15.3424" y2="25.2455" gradientUnits="userSpaceOnUse">
<stop stop-color="#E6AC82"/>
<stop offset="1" stop-color="#F2CBAF"/>
</linearGradient>
<linearGradient id="paint3_linear_864_1471" x1="15.0003" y1="22.7842" x2="15.0003" y2="30.4297" gradientUnits="userSpaceOnUse">
<stop stop-color="#78A8EB"/>
<stop offset="1" stop-color="#99BBEB"/>
</linearGradient>
<linearGradient id="paint4_linear_864_1471" x1="12.4996" y1="20.6641" x2="14.7513" y2="23.6206" gradientUnits="userSpaceOnUse">
<stop stop-color="#E6A470"/>
<stop offset="1" stop-color="#E6A370" stop-opacity="0"/>
</linearGradient>
<linearGradient id="paint5_linear_864_1471" x1="11.5622" y1="11.8329" x2="19.0147" y2="19.1044" gradientUnits="userSpaceOnUse">
<stop stop-color="#F3B68A"/>
<stop offset="1" stop-color="#FED5B8"/>
</linearGradient>
<linearGradient id="paint6_linear_864_1471" x1="10.4442" y1="9.88829" x2="14.1087" y2="20.7674" gradientUnits="userSpaceOnUse">
<stop stop-color="#EBA873"/>
<stop offset="1" stop-color="#EBA773" stop-opacity="0"/>
</linearGradient>
<radialGradient id="paint7_radial_864_1471" cx="0" cy="0" r="1" gradientUnits="userSpaceOnUse" gradientTransform="translate(12.5007 14.4081) rotate(71.565) scale(0.988186 0.658792)">
<stop stop-color="#040404"/>
<stop offset="1" stop-color="#767676"/>
</radialGradient>
<radialGradient id="paint8_radial_864_1471" cx="0" cy="0" r="1" gradientUnits="userSpaceOnUse" gradientTransform="translate(17.1882 14.4081) rotate(71.565) scale(0.988186 0.658791)">
<stop stop-color="#040404"/>
<stop offset="1" stop-color="#767676"/>
</radialGradient>
<linearGradient id="paint9_linear_864_1471" x1="12.1879" y1="12.8117" x2="12.6563" y2="13.6319" gradientUnits="userSpaceOnUse">
<stop stop-color="#6E5A64"/>
<stop offset="1" stop-color="#6E5A64" stop-opacity="0.86"/>
</linearGradient>
<linearGradient id="paint10_linear_864_1471" x1="16.8754" y1="12.8117" x2="17.3438" y2="13.6319" gradientUnits="userSpaceOnUse">
<stop stop-color="#6E5A64"/>
<stop offset="1" stop-color="#6E5A64" stop-opacity="0.86"/>
</linearGradient>
<linearGradient id="paint11_linear_864_1471" x1="9.688" y1="10.3128" x2="9.59898" y2="14.3572" gradientUnits="userSpaceOnUse">
<stop stop-color="#473A41"/>
<stop offset="1" stop-color="#6E5A64"/>
</linearGradient>
<linearGradient id="paint12_linear_864_1471" x1="19.8442" y1="10.3128" x2="19.7552" y2="14.3572" gradientUnits="userSpaceOnUse">
<stop stop-color="#473A41"/>
<stop offset="1" stop-color="#6E5A64"/>
</linearGradient>
<linearGradient id="paint13_linear_864_1471" x1="10.9372" y1="8.43698" x2="19.79" y2="14.0096" gradientUnits="userSpaceOnUse">
<stop stop-color="#473A41"/>
<stop offset="1" stop-color="#6E5A64"/>
</linearGradient>
<linearGradient id="paint14_linear_864_1471" x1="14.9997" y1="6.87448" x2="17.4997" y2="11.562" gradientUnits="userSpaceOnUse">
<stop stop-color="#64505A"/>
<stop offset="1" stop-color="#64505A" stop-opacity="0"/>
</linearGradient>
<linearGradient id="paint15_linear_864_1471" x1="15.0003" y1="5.81934" x2="15.0003" y2="30.4296" gradientUnits="userSpaceOnUse">
<stop stop-color="#A5CDFF"/>
<stop offset="0.600905" stop-color="#BDDAFF"/>
</linearGradient>
<linearGradient id="paint16_linear_864_1471" x1="15" y1="25.3525" x2="15" y2="27.6964" gradientUnits="userSpaceOnUse">
<stop stop-color="#473A41"/>
<stop offset="1" stop-color="#6E5A64"/>
</linearGradient>
<linearGradient id="paint17_linear_864_1471" x1="7.69725" y1="24.6641" x2="7.69725" y2="30.4305" gradientUnits="userSpaceOnUse">
<stop offset="0.21875" stop-color="#A5CDFF"/>
<stop offset="1" stop-color="#D9EAFF"/>
</linearGradient>
<linearGradient id="paint18_linear_864_1471" x1="22.3027" y1="24.6641" x2="22.3027" y2="30.4305" gradientUnits="userSpaceOnUse">
<stop offset="0.21875" stop-color="#A5CDFF"/>
<stop offset="1" stop-color="#D9EAFF"/>
</linearGradient>
</defs>
</svg>
