<svg width="30" height="30" viewBox="0 0 30 30" fill="none" xmlns="http://www.w3.org/2000/svg">
<ellipse cx="15" cy="15" rx="15" ry="15" fill="url(#paint0_radial_864_1625)"/>
<mask id="mask0_864_1625" style="mask-type:alpha" maskUnits="userSpaceOnUse" x="0" y="0" width="30" height="30">
<ellipse cx="15" cy="15" rx="15" ry="15" fill="#C4C4C4"/>
</mask>
<g mask="url(#mask0_864_1625)">
<path d="M22.6916 24.0435L18.5744 22.8325C18.0756 22.6859 17.7331 22.2281 17.7331 21.7082V19.8506H12.264V21.7082C12.264 22.2281 11.9215 22.6858 11.4228 22.8325L7.30558 24.0435C6.30809 24.3369 5.62305 25.2523 5.62305 26.2921V29.2261C5.62305 29.8733 6.14774 30.398 6.79499 30.398H23.2022C23.8494 30.398 24.3741 29.8733 24.3741 29.2261V26.2921C24.3741 25.2523 23.6891 24.3369 22.6916 24.0435Z" fill="#E3AA75"/>
<path d="M22.6916 24.0431L18.5744 22.8322C18.5047 22.8117 18.439 22.7839 18.376 22.752L14.9984 23.366L11.6211 22.752C11.5581 22.7839 11.4924 22.8117 11.4228 22.8322L7.30558 24.0431C6.30804 24.3365 5.62305 25.252 5.62305 26.2918V29.2258C5.62305 29.873 6.14774 30.3977 6.79499 30.3977H23.2022C23.8494 30.3977 24.3741 29.873 24.3741 29.2257V26.2917C24.3741 25.252 23.6891 24.3365 22.6916 24.0431Z" fill="url(#paint1_linear_864_1625)"/>
<path d="M10.3784 23.7274L12.314 25.3865C12.5971 25.6291 12.958 25.7627 13.3305 25.7627C13.808 25.7627 14.253 25.549 14.5511 25.1763L14.9987 24.6168L15.4463 25.1762C15.7445 25.549 16.1893 25.7627 16.6669 25.7627C17.0394 25.7627 17.4004 25.6291 17.6834 25.3865L19.619 23.7274C19.776 23.5928 19.8841 23.4211 19.9447 23.2352L18.5745 22.8322C18.5049 22.8117 18.4392 22.7839 18.3762 22.752L14.9985 23.366L11.6212 22.752C11.5582 22.7839 11.4925 22.8117 11.4229 22.8322L10.0527 23.2352C10.1133 23.4211 10.2214 23.5929 10.3784 23.7274Z" fill="url(#paint2_linear_864_1625)"/>
<path d="M12.2656 20.7223C13.0863 21.1607 14.0171 21.4132 15.0002 21.4132C15.9833 21.4132 16.914 21.1607 17.7347 20.7223V19.8506H12.2656V20.7223Z" fill="#D29B6E"/>
<path d="M20.2741 13.9905H20.0787V9.69336H9.92195V13.9905H9.72662C9.18725 13.9905 8.75 14.4277 8.75 14.9671C8.75 15.5064 9.18725 15.9437 9.72662 15.9437H9.94168C10.1418 18.5653 12.3275 20.6314 15.0003 20.6314C17.6732 20.6314 19.8589 18.5653 20.059 15.9437H20.2741C20.8134 15.9437 21.2507 15.5064 21.2507 14.9671C21.2507 14.4278 20.8135 13.9905 20.2741 13.9905Z" fill="url(#paint3_linear_864_1625)"/>
<path d="M18.5161 10.4747V9.69336H9.92191V13.9905H9.78234C9.27146 13.9905 8.80595 14.358 8.75506 14.8663C8.6965 15.4509 9.154 15.9436 9.72663 15.9436H9.94168C10.1418 18.5652 12.3275 20.6314 15.0003 20.6314C15.2676 20.6314 15.5281 20.6054 15.7841 20.5655C13.3501 20.1899 11.4845 18.0921 11.4845 15.553V12.8184C11.4845 11.9554 12.1841 11.2558 13.0471 11.2558H17.7348C18.1663 11.256 18.5161 10.9062 18.5161 10.4747Z" fill="url(#paint4_linear_864_1625)"/>
<path d="M15.0003 23.3659L11.8412 21.6108C11.6467 21.5028 11.4015 21.5786 11.302 21.7776L10.8123 22.757C10.7482 22.8853 10.7796 23.0407 10.8885 23.134L12.8241 24.7931C13.1596 25.0807 13.6666 25.033 13.9426 24.688L15.0003 23.3659Z" fill="url(#paint5_linear_864_1625)"/>
<path d="M15 23.3659L18.1592 21.6108C18.3536 21.5028 18.5988 21.5786 18.6983 21.7776L19.188 22.757C19.2522 22.8853 19.2208 23.0407 19.1119 23.134L17.1763 24.7931C16.8407 25.0807 16.3337 25.033 16.0577 24.688L15 23.3659Z" fill="url(#paint6_linear_864_1625)"/>
<path d="M12.6563 15.1964C12.4404 15.1964 12.2656 15.0214 12.2656 14.8057V14.4151C12.2656 14.1993 12.4404 14.0244 12.6563 14.0244C12.8722 14.0244 13.0469 14.1993 13.0469 14.4151V14.8057C13.0469 15.0215 12.8722 15.1964 12.6563 15.1964Z" fill="url(#paint7_radial_864_1625)"/>
<path d="M17.3438 15.1964C17.1279 15.1964 16.9531 15.0214 16.9531 14.8057V14.4151C16.9531 14.1993 17.1279 14.0244 17.3438 14.0244C17.5597 14.0244 17.7344 14.1993 17.7344 14.4151V14.8057C17.7344 15.0215 17.5597 15.1964 17.3438 15.1964Z" fill="url(#paint8_radial_864_1625)"/>
<path d="M13.0469 13.5997H12.2656C12.0497 13.5997 11.875 13.4247 11.875 13.209C11.875 12.9933 12.0497 12.8184 12.2656 12.8184H13.0469C13.2629 12.8184 13.4376 12.9933 13.4376 13.209C13.4376 13.4247 13.2629 13.5997 13.0469 13.5997Z" fill="url(#paint9_linear_864_1625)"/>
<path d="M17.7344 13.5997H16.9532C16.7372 13.5997 16.5625 13.4247 16.5625 13.209C16.5625 12.9933 16.7372 12.8184 16.9532 12.8184H17.7344C17.9504 12.8184 18.1251 12.9933 18.1251 13.209C18.1251 13.4247 17.9504 13.5997 17.7344 13.5997Z" fill="url(#paint10_linear_864_1625)"/>
<path d="M13.4546 16.5625C13.3316 16.5625 13.2402 16.6749 13.2607 16.7962C13.3876 17.5483 14.1176 18.1251 14.9991 18.1251C15.8806 18.1251 16.6106 17.5483 16.7374 16.7962C16.7579 16.6749 16.6665 16.5625 16.5435 16.5625H13.4546Z" fill="white"/>
<path d="M15 26.8819C15.2158 26.8819 15.3907 26.707 15.3907 26.4912C15.3907 26.2755 15.2158 26.1006 15 26.1006C14.7843 26.1006 14.6094 26.2755 14.6094 26.4912C14.6094 26.707 14.7843 26.8819 15 26.8819Z" fill="url(#paint11_radial_864_1625)"/>
<path d="M15 29.2256C15.2158 29.2256 15.3907 29.0507 15.3907 28.835C15.3907 28.6192 15.2158 28.4443 15 28.4443C14.7843 28.4443 14.6094 28.6192 14.6094 28.835C14.6094 29.0507 14.7843 29.2256 15 29.2256Z" fill="url(#paint12_radial_864_1625)"/>
<path d="M19.3754 8.91211H10.6216C9.42883 8.91211 8.51459 9.97184 8.68947 11.1517L9.13883 14.1835L10.0159 14.0752C10.4074 14.0268 10.7014 13.6942 10.7014 13.2998V11.256C10.7014 10.8244 11.0512 10.4747 11.4827 10.4747H18.5144C18.9458 10.4747 19.2957 10.8244 19.2957 11.256V13.2997C19.2957 13.6942 19.5897 14.0268 19.9812 14.0751L20.8583 14.1835L21.3076 11.1516C21.4824 9.97179 20.5682 8.91211 19.3754 8.91211Z" fill="url(#paint13_linear_864_1625)"/>
<path d="M20.2621 6.2754C20.187 6.04277 19.9168 5.92983 19.7034 6.04892C19.2964 6.27602 18.5399 6.5688 17.3442 6.5688H13.4377C11.9274 6.5688 10.7031 7.79307 10.7031 9.30334C10.7031 9.95059 11.2278 10.4753 11.8751 10.4753H18.1254C19.5935 10.4753 21.0614 8.75144 20.2621 6.2754Z" fill="url(#paint14_linear_864_1625)"/>
<path d="M9.1407 26.8818V30.3977H7.96875V28.0538C7.96875 27.4065 8.49344 26.8818 9.1407 26.8818Z" fill="url(#paint15_linear_864_1625)"/>
<path d="M20.8594 26.8818V30.3977H22.0313V28.0538C22.0313 27.4065 21.5066 26.8818 20.8594 26.8818Z" fill="url(#paint16_linear_864_1625)"/>
<path d="M9.14062 30.3983H10.7032V23.0449L9.14062 23.5045V30.3983Z" fill="url(#paint17_linear_864_1625)"/>
<path d="M20.8595 30.3983H19.2969V23.0449L20.8595 23.5045V30.3983Z" fill="url(#paint18_linear_864_1625)"/>
<path d="M9.14062 30.3977H9.92192V27.6631C9.92192 27.2316 9.57211 26.8818 9.14062 26.8818V30.3977V30.3977Z" fill="#FFD164"/>
<path d="M20.8594 30.3977H20.0781V27.6631C20.0781 27.2316 20.4279 26.8818 20.8594 26.8818V30.3977Z" fill="#FFD164"/>
<path d="M13.0275 7.92999C13.0334 8.48389 13.524 8.91209 14.0779 8.91209H19.3761C19.6572 8.91209 19.9219 8.9727 20.1614 9.07815C20.5173 8.3558 20.6223 7.393 20.2605 6.27328C20.1857 6.04179 19.9157 5.92909 19.7033 6.04774C19.2966 6.27495 18.5398 6.56824 17.343 6.56824H13.4365C13.4121 6.58259 13.3845 6.59879 13.3601 6.61313C13.1489 7.00097 13.0273 7.44465 13.0273 7.91741C13.0274 7.92155 13.0274 7.92574 13.0275 7.92999Z" fill="url(#paint19_linear_864_1625)"/>
</g>
<defs>
<radialGradient id="paint0_radial_864_1625" cx="0" cy="0" r="1" gradientUnits="userSpaceOnUse" gradientTransform="translate(5.9375 3.4375) rotate(51.809) scale(29.8204 29.8204)">
<stop offset="0.492268" stop-color="#B8A4FC"/>
<stop offset="1" stop-color="#B859E4"/>
</radialGradient>
<linearGradient id="paint1_linear_864_1625" x1="14.9986" y1="22.752" x2="14.9986" y2="30.3977" gradientUnits="userSpaceOnUse">
<stop stop-color="#FF414F"/>
<stop offset="1" stop-color="#FF7456"/>
</linearGradient>
<linearGradient id="paint2_linear_864_1625" x1="14.9987" y1="22.752" x2="14.9987" y2="25.7627" gradientUnits="userSpaceOnUse">
<stop stop-color="#B33639"/>
<stop offset="1" stop-color="#E64549"/>
</linearGradient>
<linearGradient id="paint3_linear_864_1625" x1="9.37587" y1="10.9374" x2="19.3759" y2="18.4374" gradientUnits="userSpaceOnUse">
<stop stop-color="#EDB379"/>
<stop offset="1" stop-color="#FFC182"/>
</linearGradient>
<linearGradient id="paint4_linear_864_1625" x1="9.06333" y1="11.2499" x2="15.0008" y2="14.0624" gradientUnits="userSpaceOnUse">
<stop stop-color="#C58646"/>
<stop offset="1" stop-color="#C68748" stop-opacity="0.06"/>
</linearGradient>
<linearGradient id="paint5_linear_864_1625" x1="12.8898" y1="21.5615" x2="12.8898" y2="24.9812" gradientUnits="userSpaceOnUse">
<stop stop-color="#FF414F"/>
<stop offset="1" stop-color="#FF7456"/>
</linearGradient>
<linearGradient id="paint6_linear_864_1625" x1="17.1105" y1="21.5615" x2="17.1105" y2="24.9812" gradientUnits="userSpaceOnUse">
<stop stop-color="#FF414F"/>
<stop offset="1" stop-color="#FF7456"/>
</linearGradient>
<radialGradient id="paint7_radial_864_1625" cx="0" cy="0" r="1" gradientUnits="userSpaceOnUse" gradientTransform="translate(12.5007 14.3749) rotate(71.5651) scale(0.988212 0.658807)">
<stop stop-color="#040404"/>
<stop offset="1" stop-color="#767676"/>
</radialGradient>
<radialGradient id="paint8_radial_864_1625" cx="0" cy="0" r="1" gradientUnits="userSpaceOnUse" gradientTransform="translate(17.1882 14.3749) rotate(71.565) scale(0.988211 0.658807)">
<stop stop-color="#040404"/>
<stop offset="1" stop-color="#767676"/>
</radialGradient>
<linearGradient id="paint9_linear_864_1625" x1="12.8132" y1="12.8123" x2="12.8132" y2="13.7498" gradientUnits="userSpaceOnUse">
<stop stop-color="#332A2E"/>
<stop offset="1" stop-color="#6E5A64"/>
</linearGradient>
<linearGradient id="paint10_linear_864_1625" x1="17.5007" y1="12.8123" x2="17.5007" y2="13.7498" gradientUnits="userSpaceOnUse">
<stop stop-color="#332A2E"/>
<stop offset="1" stop-color="#6E5A64"/>
</linearGradient>
<radialGradient id="paint11_radial_864_1625" cx="0" cy="0" r="1" gradientUnits="userSpaceOnUse" gradientTransform="translate(15.0005 25.9375) rotate(90.0312) scale(0.944414)">
<stop stop-color="#FFC350"/>
<stop offset="1" stop-color="#FFD179" stop-opacity="0.97"/>
</radialGradient>
<radialGradient id="paint12_radial_864_1625" cx="0" cy="0" r="1" gradientUnits="userSpaceOnUse" gradientTransform="translate(15.0005 28.2812) rotate(90.0312) scale(0.944416 0.944415)">
<stop stop-color="#FFC350"/>
<stop offset="1" stop-color="#FFD179" stop-opacity="0.97"/>
</radialGradient>
<linearGradient id="paint13_linear_864_1625" x1="14.9985" y1="8.91211" x2="14.9985" y2="14.1835" gradientUnits="userSpaceOnUse">
<stop stop-color="#362A30"/>
<stop offset="1" stop-color="#826574"/>
</linearGradient>
<linearGradient id="paint14_linear_864_1625" x1="10.9383" y1="9.06296" x2="20.6258" y2="6.87546" gradientUnits="userSpaceOnUse">
<stop stop-color="#64505A"/>
<stop offset="1" stop-color="#78606C"/>
</linearGradient>
<linearGradient id="paint15_linear_864_1625" x1="8.55472" y1="26.8818" x2="8.55472" y2="30.3977" gradientUnits="userSpaceOnUse">
<stop stop-color="#B33639"/>
<stop offset="1" stop-color="#E64549"/>
</linearGradient>
<linearGradient id="paint16_linear_864_1625" x1="21.4453" y1="26.8818" x2="21.4453" y2="30.3977" gradientUnits="userSpaceOnUse">
<stop stop-color="#B33639"/>
<stop offset="1" stop-color="#E64549"/>
</linearGradient>
<linearGradient id="paint17_linear_864_1625" x1="9.92192" y1="23.0449" x2="9.92192" y2="30.3983" gradientUnits="userSpaceOnUse">
<stop stop-color="#FFCA62"/>
<stop offset="1" stop-color="#FFCA62" stop-opacity="0.38"/>
</linearGradient>
<linearGradient id="paint18_linear_864_1625" x1="20.0782" y1="23.0449" x2="20.0782" y2="30.3983" gradientUnits="userSpaceOnUse">
<stop stop-color="#FFCA62"/>
<stop offset="1" stop-color="#FFCA62" stop-opacity="0.38"/>
</linearGradient>
<linearGradient id="paint19_linear_864_1625" x1="13.1247" y1="8.43744" x2="20.3122" y2="6.24994" gradientUnits="userSpaceOnUse">
<stop stop-color="#7A646F"/>
<stop offset="1" stop-color="#6E5A64"/>
</linearGradient>
</defs>
</svg>
