<svg width="30" height="30" viewBox="0 0 30 30" fill="none" xmlns="http://www.w3.org/2000/svg">
<circle cx="15" cy="15" r="15" fill="url(#paint0_radial_864_1543)"/>
<mask id="mask0_864_1543" style="mask-type:alpha" maskUnits="userSpaceOnUse" x="0" y="0" width="30" height="30">
<circle cx="15" cy="15" r="15" fill="#C4C4C4"/>
</mask>
<g mask="url(#mask0_864_1543)">
<path d="M15.0006 6.46777C11.4287 6.46777 8.5332 9.3633 8.5332 12.9352V15.8518C8.5332 20.956 11.7027 23.5652 11.7027 23.5652H21.468V12.9352C21.468 9.3633 18.5724 6.46777 15.0006 6.46777Z" fill="#FFD164"/>
<path d="M8.5332 12.9352V15.8518C8.5332 20.956 11.7027 23.5652 11.7027 23.5652H15.0006V6.46777C11.4287 6.46777 8.5332 9.3633 8.5332 12.9352Z" fill="url(#paint1_linear_864_1543)"/>
<path d="M22.2271 24.9513L18.2979 23.5645C17.6895 23.3498 17.2826 22.7747 17.2826 22.1295V19.7822H12.7173V22.1295C12.7173 22.7747 12.3105 23.3498 11.7021 23.5645L7.77288 24.9513C6.86027 25.2734 6.25 26.136 6.25 27.1037V28.9127C6.25 29.543 6.76099 30.054 7.39129 30.054H22.6087C23.239 30.054 23.75 29.543 23.75 28.9127V27.1037C23.75 26.136 23.1397 25.2734 22.2271 24.9513Z" fill="url(#paint2_linear_864_1543)"/>
<path d="M22.2271 24.9519L18.9573 23.7979C18.3946 25.4447 16.8375 26.6307 15 26.6307C13.1625 26.6307 11.6054 25.4447 11.0427 23.7979L7.77288 24.9519C6.86027 25.274 6.25 26.1366 6.25 27.1044V28.9133C6.25 29.5436 6.76099 30.0546 7.39129 30.0546H22.6087C23.239 30.0546 23.75 29.5436 23.75 28.9133V27.1044C23.7499 26.1366 23.1397 25.274 22.2271 24.9519Z" fill="url(#paint3_linear_864_1543)"/>
<path d="M15.0004 28.1524C17.5006 28.1524 19.6199 26.542 20.3914 24.3039L18.9577 23.7979C18.395 25.4447 16.8378 26.6307 15.0004 26.6307C13.1629 26.6307 11.6058 25.4447 11.0431 23.7979L9.60938 24.3039C10.3808 26.542 12.5002 28.1524 15.0004 28.1524Z" fill="url(#paint4_linear_864_1543)"/>
<path d="M9.00886 27.4082L6.85434 25.5615C6.67993 25.7513 6.5414 25.9702 6.43945 26.2078L8.51395 27.9859C8.76696 28.2029 8.91221 28.5187 8.91221 28.8525V30.0547H9.67307V28.8525C9.67312 28.2963 9.43089 27.7699 9.00886 27.4082Z" fill="url(#paint5_linear_864_1543)"/>
<path d="M12.7168 21.1977C13.3358 21.4733 14.0109 21.6444 14.7245 21.6779C14.8166 21.6823 14.9083 21.6844 14.9994 21.6844C15.8111 21.6844 16.5823 21.5114 17.282 21.2046V19.7822H12.7168V21.1977Z" fill="url(#paint6_linear_864_1543)"/>
<path d="M20.0807 14.4571C19.5854 14.4571 19.1839 14.0556 19.1839 13.5603V12.9354C19.1839 11.8848 18.3322 11.0332 17.2817 11.0332H12.7165C11.6659 11.0332 10.8143 11.8848 10.8143 12.9354V13.5603C10.8143 14.0556 10.4128 14.4571 9.91745 14.4571C9.41996 14.4571 8.96661 14.8151 8.91704 15.3101C8.86 15.8794 9.30558 16.3593 9.86319 16.3593H10.0726C10.2675 18.9123 12.3961 20.9245 14.9991 20.9245C17.6021 20.9245 19.7306 18.9123 19.9255 16.3593H20.1349C20.6926 16.3593 21.1381 15.8794 21.0811 15.3101C21.0316 14.8151 20.5782 14.4571 20.0807 14.4571Z" fill="url(#paint7_linear_864_1543)"/>
<path d="M12.717 12.3375C13.0898 12.2842 13.4711 12.3877 13.7561 12.6338C15.6408 14.2617 18.0812 15.218 20.7056 15.218C20.819 15.218 20.9378 15.215 21.0605 15.2103C20.9628 14.7651 20.5367 14.4522 20.0696 14.4572C19.5784 14.4624 19.1838 14.0515 19.1838 13.5603V12.9354C19.1838 11.8848 18.3322 11.0332 17.2816 11.0332H12.7164C12.2867 11.0332 11.8935 11.1798 11.5751 11.4202V11.4222C11.1156 11.7695 10.8143 12.3151 10.8143 12.9354V13.5992C10.8143 14.0925 10.4005 14.4522 9.90717 14.4571C9.41374 14.462 8.96628 14.8184 8.91703 15.31C8.86004 15.8794 9.30552 16.3592 9.86318 16.3592H10.0726C10.2675 18.9123 12.3961 20.9245 14.9991 20.9245C15.2593 20.9245 15.513 20.8991 15.7623 20.8603C13.3919 20.4945 11.5751 18.4516 11.5751 15.9788V13.654C11.5751 12.9922 12.0618 12.4311 12.717 12.3375Z" fill="url(#paint8_linear_864_1543)"/>
<path d="M12.7164 15.5974C12.5061 15.5974 12.3359 15.427 12.3359 15.2169V14.8365C12.3359 14.6264 12.5061 14.4561 12.7164 14.4561C12.9266 14.4561 13.0968 14.6264 13.0968 14.8365V15.2169C13.0968 15.427 12.9266 15.5974 12.7164 15.5974Z" fill="url(#paint9_radial_864_1543)"/>
<path d="M17.2808 15.5974C17.0705 15.5974 16.9004 15.427 16.9004 15.2169V14.8365C16.9004 14.6264 17.0706 14.4561 17.2808 14.4561C17.4911 14.4561 17.6613 14.6264 17.6613 14.8365V15.2169C17.6613 15.427 17.4911 15.5974 17.2808 15.5974Z" fill="url(#paint10_radial_864_1543)"/>
<path d="M15.0003 18.2614C14.4296 18.2614 13.9028 18.0783 13.5918 17.7714C13.4421 17.6239 13.4406 17.383 13.5881 17.2335C13.7356 17.0837 13.9771 17.0823 14.126 17.2297C14.2527 17.3548 14.5577 17.5006 15.0002 17.5006C15.4427 17.5006 15.7477 17.3548 15.8744 17.2297C16.0234 17.0822 16.2649 17.0837 16.4124 17.2335C16.5599 17.383 16.5584 17.6239 16.4086 17.7714C16.0978 18.0783 15.5709 18.2614 15.0003 18.2614Z" fill="#E3AA75"/>
<path d="M20.9904 27.4082L23.1449 25.5615C23.3193 25.7513 23.4578 25.9702 23.5598 26.2078L21.4853 27.9859C21.2323 28.2029 21.087 28.5187 21.087 28.8525V30.0547H20.3262V28.8525C20.3261 28.2964 20.5684 27.7699 20.9904 27.4082Z" fill="url(#paint11_linear_864_1543)"/>
<path d="M11.9566 14.0764C11.7972 14.0764 11.649 13.9755 11.5958 13.8162C11.5293 13.6169 11.6371 13.4014 11.8362 13.3349L12.9775 12.9544C13.1785 12.8874 13.3921 12.9957 13.4586 13.195C13.5252 13.3944 13.4174 13.6098 13.2183 13.6763L12.077 14.0568C12.0368 14.0701 11.9964 14.0764 11.9566 14.0764Z" fill="url(#paint12_linear_864_1543)"/>
<path d="M15.0001 6.46777C13.6242 6.46777 12.3511 6.90068 11.3027 7.63316C12.594 11.5938 16.315 14.4569 20.7066 14.4569C20.963 14.4569 21.2161 14.444 21.4675 14.4249V12.9351C21.4675 9.3633 18.572 6.46777 15.0001 6.46777Z" fill="url(#paint13_radial_864_1543)"/>
<path d="M17.2832 20.9238V22.4456C17.2832 25.8048 19.9462 27.0108 19.9462 30.0542H21.4679V20.9238H17.2832Z" fill="#FFD164"/>
</g>
<defs>
<radialGradient id="paint0_radial_864_1543" cx="0" cy="0" r="1" gradientUnits="userSpaceOnUse" gradientTransform="translate(4.0625 4.0625) rotate(49.1446) scale(30.5739)">
<stop offset="0.572917" stop-color="#FFCC73"/>
<stop offset="1" stop-color="#FF93A0"/>
</radialGradient>
<linearGradient id="paint1_linear_864_1543" x1="11.7669" y1="6.46777" x2="11.7669" y2="23.5652" gradientUnits="userSpaceOnUse">
<stop stop-color="#FFA436"/>
<stop offset="1" stop-color="#FFC773"/>
</linearGradient>
<linearGradient id="paint2_linear_864_1543" x1="12.8125" y1="22.1872" x2="18.0997" y2="29.8639" gradientUnits="userSpaceOnUse">
<stop stop-color="#F5D48E"/>
<stop offset="1" stop-color="#FFE7B3"/>
</linearGradient>
<linearGradient id="paint3_linear_864_1543" x1="9.06249" y1="24.6877" x2="21.875" y2="29.0627" gradientUnits="userSpaceOnUse">
<stop stop-color="#75D8FF"/>
<stop offset="1" stop-color="#ADEBFF"/>
</linearGradient>
<linearGradient id="paint4_linear_864_1543" x1="10.3129" y1="24.0627" x2="20.9379" y2="25.6252" gradientUnits="userSpaceOnUse">
<stop stop-color="#EDEBED"/>
<stop offset="1" stop-color="#FCFAFC"/>
</linearGradient>
<linearGradient id="paint5_linear_864_1543" x1="8.05626" y1="25.5615" x2="8.05626" y2="30.0547" gradientUnits="userSpaceOnUse">
<stop stop-color="#8CACEB"/>
<stop offset="1" stop-color="#8CACEB" stop-opacity="0"/>
</linearGradient>
<linearGradient id="paint6_linear_864_1543" x1="12.8119" y1="20.9372" x2="15.9591" y2="23.0654" gradientUnits="userSpaceOnUse">
<stop stop-color="#EBC178"/>
<stop offset="1" stop-color="#F7D291" stop-opacity="0.14"/>
</linearGradient>
<linearGradient id="paint7_linear_864_1543" x1="11.5616" y1="11.2506" x2="19.6866" y2="20.3131" gradientUnits="userSpaceOnUse">
<stop stop-color="#F7D78F"/>
<stop offset="1" stop-color="#FFE7B3"/>
</linearGradient>
<linearGradient id="paint8_linear_864_1543" x1="11.2491" y1="10.9381" x2="16.5616" y2="21.5631" gradientUnits="userSpaceOnUse">
<stop stop-color="#F7CB7E"/>
<stop offset="1" stop-color="#F7D291" stop-opacity="0.14"/>
</linearGradient>
<radialGradient id="paint9_radial_864_1543" cx="0" cy="0" r="1" gradientUnits="userSpaceOnUse" gradientTransform="translate(12.5649 14.7974) rotate(71.5651) scale(0.962365 0.641577)">
<stop stop-color="#040404"/>
<stop offset="1" stop-color="#767676"/>
</radialGradient>
<radialGradient id="paint10_radial_864_1543" cx="0" cy="0" r="1" gradientUnits="userSpaceOnUse" gradientTransform="translate(17.1293 14.7974) rotate(71.5651) scale(0.962365 0.641576)">
<stop stop-color="#040404"/>
<stop offset="1" stop-color="#767676"/>
</radialGradient>
<linearGradient id="paint11_linear_864_1543" x1="21.943" y1="25.5615" x2="21.943" y2="30.0547" gradientUnits="userSpaceOnUse">
<stop stop-color="#8CACEB"/>
<stop offset="1" stop-color="#8CACEB" stop-opacity="0"/>
</linearGradient>
<linearGradient id="paint12_linear_864_1543" x1="11.8751" y1="13.125" x2="13.1251" y2="13.75" gradientUnits="userSpaceOnUse">
<stop stop-color="#E3AA75"/>
<stop offset="1" stop-color="#FABB81"/>
</linearGradient>
<radialGradient id="paint13_radial_864_1543" cx="0" cy="0" r="1" gradientUnits="userSpaceOnUse" gradientTransform="translate(15.9376 6.56284) rotate(75.9638) scale(7.73082 9.83615)">
<stop stop-color="#FAD348"/>
<stop offset="1" stop-color="#FFE17D"/>
</radialGradient>
</defs>
</svg>
