<svg width="30" height="30" viewBox="0 0 30 30" fill="none" xmlns="http://www.w3.org/2000/svg">
<ellipse cx="15" cy="15.0001" rx="15" ry="15.0001" fill="url(#paint0_radial_864_1602)"/>
<mask id="mask0_864_1602" style="mask-type:alpha" maskUnits="userSpaceOnUse" x="0" y="0" width="30" height="30">
<ellipse cx="15" cy="15.0001" rx="15" ry="15.0001" fill="#C4C4C4"/>
</mask>
<g mask="url(#mask0_864_1602)">
<path d="M22.692 23.3925L18.5752 22.1816H11.4242L7.30734 23.3925C6.30991 23.6859 5.625 24.6013 5.625 25.6409V29.063C5.625 29.7102 6.14966 30.2348 6.79683 30.2348H23.2025C23.8497 30.2348 24.3744 29.7102 24.3744 29.063V25.6409C24.3744 24.6013 23.6894 23.6859 22.692 23.3925Z" fill="url(#paint1_linear_864_1602)"/>
<path d="M16.9529 30.2351H13.0468L12.2656 22.4229H17.7342L16.9529 30.2351Z" fill="url(#paint2_linear_864_1602)"/>
<path d="M12.2656 22.4229L12.3826 23.5921C13.0263 24.3113 13.9588 24.7666 14.9999 24.7666C16.0411 24.7666 16.9736 24.3113 17.6173 23.5921L17.7342 22.4229H12.2656V22.4229Z" fill="url(#paint3_linear_864_1602)"/>
<path d="M14.9999 23.9842C13.4898 23.9842 12.2656 22.76 12.2656 21.25V18.5156H17.7342V21.25C17.7342 22.76 16.5101 23.9842 14.9999 23.9842Z" fill="url(#paint4_linear_864_1602)"/>
<path d="M12.2656 20.1683C13.0863 20.6067 14.0168 20.8593 14.9999 20.8593C15.9829 20.8593 16.9135 20.6067 17.7342 20.1683V18.5156H12.2656V20.1683Z" fill="url(#paint5_linear_864_1602)"/>
<path d="M20.2731 13.4383H20.0778V9.53223H9.92183V13.4384H9.72652C9.18942 13.4384 8.75 13.8778 8.75 14.4149C8.75 14.952 9.18942 15.3914 9.72652 15.3914H9.94155C10.1416 18.0128 12.3272 20.0788 14.9998 20.0788C17.6724 20.0788 19.8579 18.0128 20.058 15.3914H20.2731C20.8102 15.3914 21.2496 14.952 21.2496 14.4149C21.2496 13.8778 20.8102 13.4383 20.2731 13.4383Z" fill="url(#paint6_linear_864_1602)"/>
<path d="M12.6562 14.6445C12.4403 14.6445 12.2656 14.4696 12.2656 14.2539V13.8633C12.2656 13.6476 12.4404 13.4727 12.6562 13.4727C12.8721 13.4727 13.0468 13.6476 13.0468 13.8633V14.2539C13.0468 14.4696 12.8721 14.6445 12.6562 14.6445Z" fill="url(#paint7_radial_864_1602)"/>
<path d="M17.3437 14.6445C17.1278 14.6445 16.9531 14.4696 16.9531 14.2539V13.8633C16.9531 13.6476 17.1279 13.4727 17.3437 13.4727C17.5597 13.4727 17.7343 13.6476 17.7343 13.8633V14.2539C17.7343 14.4696 17.5597 14.6445 17.3437 14.6445Z" fill="url(#paint8_radial_864_1602)"/>
<path d="M13.0468 13.0468H12.2656C12.0497 13.0468 11.875 12.8719 11.875 12.6562C11.875 12.4405 12.0497 12.2656 12.2656 12.2656H13.0468C13.2628 12.2656 13.4374 12.4405 13.4374 12.6562C13.4374 12.8719 13.2627 13.0468 13.0468 13.0468Z" fill="url(#paint9_linear_864_1602)"/>
<path d="M17.7343 13.0468H16.9531C16.7372 13.0468 16.5625 12.8719 16.5625 12.6562C16.5625 12.4405 16.7372 12.2656 16.9531 12.2656H17.7343C17.9503 12.2656 18.1249 12.4405 18.1249 12.6562C18.1249 12.8719 17.9503 13.0468 17.7343 13.0468Z" fill="url(#paint10_linear_864_1602)"/>
<path d="M9.92183 9.53223V13.4384H9.76081C9.31609 13.4384 8.9007 13.7202 8.78547 14.1498C8.61127 14.7994 9.1031 15.3915 9.72652 15.3915H9.94155C10.1416 18.0129 12.3272 20.0789 14.9998 20.0789C15.267 20.0789 15.5275 20.0529 15.7835 20.0131C13.3497 19.6374 11.4843 17.5399 11.4843 15.0009V12.6271C11.4843 11.7101 12.2588 10.9636 13.1727 11.0389C13.4285 11.06 13.6971 11.0713 13.9794 11.0713C15.112 11.0713 16.3767 10.8905 17.7384 10.534C18.3334 10.3782 18.8451 10.0156 19.1947 9.53223H9.92183Z" fill="url(#paint11_linear_864_1602)"/>
<path d="M11.8261 7.96854L11.8749 9.53098C11.8749 9.53098 10.7031 10.7028 10.7031 12.2653V12.7474C10.7031 13.1414 10.4097 13.4738 10.0188 13.5227L9.14062 13.6324V10.3123C9.14067 9.01786 10.3613 7.90345 11.8261 7.96854Z" fill="url(#paint12_linear_864_1602)"/>
<path d="M19.6798 24.3674L18.9061 23.5937L19.7341 22.4897C19.9132 22.251 19.8323 21.9084 19.5654 21.7749L17.7343 20.8594L15 30.2341H17.3437L19.8261 25.2691C19.9765 24.9684 19.9176 24.6051 19.6798 24.3674Z" fill="url(#paint13_linear_864_1602)"/>
<path d="M18.1738 6.79666L18.125 9.53094C18.125 9.53094 19.2968 10.7028 19.2968 12.2652V12.7474C19.2968 13.1414 19.5902 13.4737 19.9812 13.5226L20.8593 13.6324V9.14038C20.8593 7.84598 19.6387 6.73157 18.1738 6.79666Z" fill="url(#paint14_linear_864_1602)"/>
<path d="M15 17.3437C14.4137 17.3437 13.8731 17.1556 13.5539 16.8406C13.4001 16.6887 13.3986 16.4416 13.55 16.2882C13.7022 16.1345 13.9494 16.133 14.1023 16.2844C14.2324 16.4126 14.5452 16.5625 14.9999 16.5625C15.4546 16.5625 15.7674 16.4126 15.8975 16.2844C16.0505 16.133 16.2977 16.1345 16.4498 16.2882C16.6013 16.4416 16.5997 16.6888 16.446 16.8406C16.1268 17.1556 15.5863 17.3437 15 17.3437Z" fill="#DEA672"/>
<path d="M10.3206 24.3674L11.0943 23.5937L10.2663 22.4897C10.0873 22.251 10.1681 21.9084 10.4351 21.7749L12.2662 20.8594L15.0004 30.2341H12.6568L10.1743 25.2691C10.0239 24.9684 10.0829 24.6051 10.3206 24.3674Z" fill="url(#paint15_linear_864_1602)"/>
<path d="M15.7581 6.0166C12.4991 6.0166 11.8746 7.00732 9.36514 7.80661C9.19268 7.86153 9.11506 8.06128 9.21255 8.21373C9.75707 9.06553 11.7839 11.2857 17.542 9.77812C18.2163 9.60159 18.7348 9.05791 18.8715 8.37441C19.0299 7.58255 18.5486 6.7983 17.8251 6.43976C17.2504 6.155 16.4967 6.0166 15.7581 6.0166Z" fill="url(#paint16_linear_864_1602)"/>
</g>
<defs>
<radialGradient id="paint0_radial_864_1602" cx="0" cy="0" r="1" gradientUnits="userSpaceOnUse" gradientTransform="translate(4.9 3.40002) rotate(53.9455) scale(30.9233 30.9232)">
<stop offset="0.356879" stop-color="#FFD080"/>
<stop offset="1" stop-color="#FFBB80"/>
</radialGradient>
<linearGradient id="paint1_linear_864_1602" x1="14.9997" y1="22.1816" x2="14.9997" y2="30.2348" gradientUnits="userSpaceOnUse">
<stop stop-color="#6B2BF2"/>
<stop offset="1" stop-color="#BB9BFF"/>
</linearGradient>
<linearGradient id="paint2_linear_864_1602" x1="14.9996" y1="23.751" x2="14.9999" y2="30.2351" gradientUnits="userSpaceOnUse">
<stop stop-color="#8CD3FF"/>
<stop offset="1" stop-color="#CFECFF"/>
</linearGradient>
<linearGradient id="paint3_linear_864_1602" x1="13.4371" y1="23.751" x2="15.9371" y2="25.001" gradientUnits="userSpaceOnUse">
<stop stop-color="#73B6E6"/>
<stop offset="1" stop-color="#92CCF5"/>
</linearGradient>
<linearGradient id="paint4_linear_864_1602" x1="13.4959" y1="19.5687" x2="17.1961" y2="22.8265" gradientUnits="userSpaceOnUse">
<stop stop-color="#E6AC82"/>
<stop offset="1" stop-color="#F2CBAF"/>
</linearGradient>
<linearGradient id="paint5_linear_864_1602" x1="12.4996" y1="19.6875" x2="15.9722" y2="22.7271" gradientUnits="userSpaceOnUse">
<stop stop-color="#E6A470"/>
<stop offset="1" stop-color="#E6A370" stop-opacity="0"/>
</linearGradient>
<linearGradient id="paint6_linear_864_1602" x1="11.562" y1="11.5632" x2="18.7495" y2="19.0632" gradientUnits="userSpaceOnUse">
<stop stop-color="#F3B68A"/>
<stop offset="1" stop-color="#FED5B8"/>
</linearGradient>
<radialGradient id="paint7_radial_864_1602" cx="0" cy="0" r="1" gradientUnits="userSpaceOnUse" gradientTransform="translate(12.5007 13.8231) rotate(71.5651) scale(0.988116 0.658741)">
<stop stop-color="#040404"/>
<stop offset="1" stop-color="#767676"/>
</radialGradient>
<radialGradient id="paint8_radial_864_1602" cx="0" cy="0" r="1" gradientUnits="userSpaceOnUse" gradientTransform="translate(17.1882 13.8231) rotate(71.5652) scale(0.988115 0.65874)">
<stop stop-color="#040404"/>
<stop offset="1" stop-color="#767676"/>
</radialGradient>
<linearGradient id="paint9_linear_864_1602" x1="12.1871" y1="12.1872" x2="12.6562" y2="13.0468" gradientUnits="userSpaceOnUse">
<stop stop-color="#70482B"/>
<stop offset="1" stop-color="#70482B" stop-opacity="0.49"/>
</linearGradient>
<linearGradient id="paint10_linear_864_1602" x1="16.8746" y1="12.1872" x2="17.3437" y2="13.0468" gradientUnits="userSpaceOnUse">
<stop stop-color="#70482B"/>
<stop offset="1" stop-color="#70482B" stop-opacity="0.49"/>
</linearGradient>
<linearGradient id="paint11_linear_864_1602" x1="10.312" y1="9.68817" x2="13.9724" y2="20.0789" gradientUnits="userSpaceOnUse">
<stop stop-color="#EBA873"/>
<stop offset="1" stop-color="#EBA773" stop-opacity="0"/>
</linearGradient>
<linearGradient id="paint12_linear_864_1602" x1="9.37456" y1="13.4369" x2="12.949" y2="11.8931" gradientUnits="userSpaceOnUse">
<stop stop-color="#99633C"/>
<stop offset="1" stop-color="#412A18"/>
</linearGradient>
<linearGradient id="paint13_linear_864_1602" x1="17.4543" y1="20.8594" x2="17.4543" y2="30.2341" gradientUnits="userSpaceOnUse">
<stop stop-color="#864DFF"/>
<stop offset="1" stop-color="#D3BFFF"/>
</linearGradient>
<linearGradient id="paint14_linear_864_1602" x1="20.9373" y1="13.7494" x2="23.0787" y2="9.5449" gradientUnits="userSpaceOnUse">
<stop stop-color="#99633C"/>
<stop offset="1" stop-color="#412A18"/>
</linearGradient>
<linearGradient id="paint15_linear_864_1602" x1="12.5461" y1="20.8594" x2="12.5461" y2="30.2341" gradientUnits="userSpaceOnUse">
<stop stop-color="#864DFF"/>
<stop offset="1" stop-color="#D3BFFF"/>
</linearGradient>
<linearGradient id="paint16_linear_864_1602" x1="9.68845" y1="8.43803" x2="18.4385" y2="6.87554" gradientUnits="userSpaceOnUse">
<stop stop-color="#8A5936"/>
<stop offset="1" stop-color="#412A18"/>
</linearGradient>
</defs>
</svg>
