<svg width="30" height="30" viewBox="0 0 30 30" fill="none" xmlns="http://www.w3.org/2000/svg">
<circle cx="15" cy="15" r="15" fill="url(#paint0_radial_864_1708)"/>
<mask id="mask0_864_1708" style="mask-type:alpha" maskUnits="userSpaceOnUse" x="0" y="0" width="30" height="30">
<circle cx="15" cy="15" r="15" fill="#C4C4C4"/>
</mask>
<g mask="url(#mask0_864_1708)">
<path d="M22.7205 24.9372L20.124 24.1383C19.6323 23.987 19.2968 23.5328 19.2968 23.0183V21.1494C19.2968 20.9337 19.122 20.7588 18.9062 20.7588H11.0937C10.878 20.7588 10.7031 20.9337 10.7031 21.1494V23.0183C10.7031 23.5327 10.3676 23.987 9.87587 24.1383L7.27949 24.9372C6.29608 25.2398 5.625 26.1484 5.625 27.1773V28.9619C5.625 29.6091 6.14968 30.1338 6.79689 30.1338H23.2031C23.8503 30.1338 24.375 29.6091 24.375 28.9619V27.1773C24.375 26.1484 23.7039 25.2398 22.7205 24.9372Z" fill="url(#paint1_linear_864_1708)"/>
<path d="M9.91406 24.1229C10.5206 25.7846 12.5644 27.0088 14.9994 27.0088C17.4345 27.0088 19.4783 25.7846 20.0848 24.1229C19.6151 23.9598 19.2963 23.5186 19.2963 23.0183V21.1494C19.2963 20.9337 19.1215 20.7588 18.9057 20.7588H11.0932C10.8775 20.7588 10.7026 20.9337 10.7026 21.1494V23.0183C10.7026 23.5186 10.3839 23.9597 9.91406 24.1229Z" fill="url(#paint2_linear_864_1708)"/>
<path d="M18.9061 20.7588H11.0936C10.98 20.7588 10.8799 20.8089 10.8086 20.8863C11.7242 22.223 13.2608 23.1026 14.9999 23.1026C16.739 23.1026 18.2756 22.223 19.1912 20.8863C19.1197 20.8089 19.0196 20.7588 18.9061 20.7588Z" fill="url(#paint3_linear_864_1708)"/>
<path d="M20.2734 14.1182H20.0781V10.2119H9.92189V14.1181H9.72656C9.18945 14.1181 8.75 14.5576 8.75 15.0947C8.75 15.6318 9.18945 16.0713 9.72656 16.0713H9.94159C10.1417 18.6927 12.3273 20.7588 15 20.7588C17.6726 20.7588 19.8582 18.6927 20.0583 16.0713H20.2733C20.8105 16.0713 21.2499 15.6318 21.2499 15.0947C21.2499 14.5576 20.8106 14.1182 20.2734 14.1182Z" fill="url(#paint4_linear_864_1708)"/>
<path d="M12.6562 15.3242C12.4403 15.3242 12.2656 15.1493 12.2656 14.9336V14.543C12.2656 14.3272 12.4403 14.1523 12.6562 14.1523C12.8722 14.1523 13.0469 14.3273 13.0469 14.543V14.9336C13.0469 15.1493 12.8722 15.3242 12.6562 15.3242Z" fill="url(#paint5_radial_864_1708)"/>
<path d="M17.3437 15.3242C17.1278 15.3242 16.9531 15.1493 16.9531 14.9336V14.543C16.9531 14.3272 17.1278 14.1523 17.3437 14.1523C17.5597 14.1523 17.7344 14.3273 17.7344 14.543V14.9336C17.7344 15.1493 17.5596 15.3242 17.3437 15.3242Z" fill="url(#paint6_radial_864_1708)"/>
<path d="M13.0468 13.7275H12.2656C12.0497 13.7275 11.875 13.5526 11.875 13.3369C11.875 13.1212 12.0497 12.9463 12.2656 12.9463H13.0468C13.2628 12.9463 13.4375 13.1212 13.4375 13.3369C13.4375 13.5526 13.2628 13.7275 13.0468 13.7275Z" fill="url(#paint7_linear_864_1708)"/>
<path d="M17.7343 13.7275H16.9531C16.7372 13.7275 16.5625 13.5526 16.5625 13.3369C16.5625 13.1212 16.7372 12.9463 16.9531 12.9463H17.7343C17.9503 12.9463 18.125 13.1212 18.125 13.3369C18.125 13.5526 17.9502 13.7275 17.7343 13.7275Z" fill="url(#paint8_linear_864_1708)"/>
<path d="M18.125 10.6026V10.2119H9.92187V14.1181H9.76083C9.31608 14.1181 8.9007 14.4 8.78549 14.8295C8.61123 15.4792 9.10312 16.0713 9.72659 16.0713H9.94162C10.1417 18.6927 12.3273 20.7588 15 20.7588C15.2672 20.7588 15.5277 20.7327 15.7837 20.6929C13.3498 20.3173 11.4844 18.2197 11.4844 15.6806V13.3369C11.4844 12.2582 12.3588 11.3838 13.4375 11.3838H17.3437C17.7752 11.3838 18.125 11.034 18.125 10.6026Z" fill="url(#paint9_linear_864_1708)"/>
<path d="M12.2654 6.7793C10.3455 7.17667 8.96369 8.97723 9.1782 11.0112L9.50826 14.1409L9.91121 14.1329C10.3366 14.1246 10.6771 13.7773 10.6771 13.3518V11.7741C10.6771 11.1269 11.2018 10.6023 11.849 10.6023H16.1717L12.2654 6.7793Z" fill="url(#paint10_linear_864_1708)"/>
<path d="M18.125 16.4609H11.875C11.2278 16.4609 10.7031 16.9856 10.7031 17.6328V18.0234C10.7031 20.3965 12.6269 22.3203 15 22.3203C17.3731 22.3203 19.2969 20.3965 19.2969 18.0234V17.6328C19.2969 16.9856 18.7722 16.4609 18.125 16.4609Z" fill="url(#paint11_linear_864_1708)"/>
<path d="M15 18.8047C14.4141 18.8047 13.8732 18.6166 13.5539 18.3015C13.4001 18.1501 13.3986 17.9027 13.5501 17.7492C13.7015 17.5954 13.9494 17.5939 14.1024 17.7454C14.2325 17.8737 14.5457 18.0234 15 18.0234C15.4544 18.0234 15.7675 17.8737 15.8976 17.7454C16.0506 17.5939 16.2986 17.5954 16.45 17.7492C16.6014 17.9027 16.5999 18.1501 16.4462 18.3015C16.1269 18.6166 15.586 18.8047 15 18.8047Z" fill="#E3AA75"/>
<path d="M12.6562 18.0234V17.6328C12.6562 16.9856 13.1809 16.4609 13.8281 16.4609H11.875C11.2278 16.4609 10.7031 16.9856 10.7031 17.6328V18.0234C10.7031 20.3965 12.6269 22.3203 15 22.3203C15.3365 22.3203 15.6624 22.2777 15.9766 22.2046C14.0748 21.7618 12.6562 20.06 12.6562 18.0234Z" fill="url(#paint12_linear_864_1708)"/>
<path d="M20.4661 14.1411L20.7962 11.0114C21.0394 8.7052 19.2312 6.69627 16.9122 6.69627H13.0473C12.0456 6.69627 10.9012 6.55357 10.224 6.14616C10.0807 6.05999 9.89583 6.17079 9.89649 6.33797C9.90094 7.49082 10.4435 10.6025 16.1723 10.6025H18.1254C18.7726 10.6025 19.2973 11.1272 19.2973 11.7744V13.3521C19.2973 13.7775 19.6378 14.1248 20.0632 14.1332L20.4661 14.1411Z" fill="url(#paint13_linear_864_1708)"/>
</g>
<defs>
<radialGradient id="paint0_radial_864_1708" cx="0" cy="0" r="1" gradientUnits="userSpaceOnUse" gradientTransform="translate(5.625 3.125) rotate(52.7652) scale(29.4381)">
<stop offset="0.0625" stop-color="#A4F6FD"/>
<stop offset="1" stop-color="#7FFDC0"/>
</radialGradient>
<linearGradient id="paint1_linear_864_1708" x1="9.6875" y1="24.6876" x2="23.125" y2="28.7501" gradientUnits="userSpaceOnUse">
<stop stop-color="#FF7E47"/>
<stop offset="1" stop-color="#FFB473"/>
</linearGradient>
<linearGradient id="paint2_linear_864_1708" x1="12.1177" y1="23.378" x2="19.6191" y2="25.2233" gradientUnits="userSpaceOnUse">
<stop stop-color="#FF8D5C"/>
<stop offset="1" stop-color="#FFBC82"/>
</linearGradient>
<linearGradient id="paint3_linear_864_1708" x1="15.3124" y1="22.1876" x2="14.931" y2="23.3078" gradientUnits="userSpaceOnUse">
<stop stop-color="#FF7E47"/>
<stop offset="1" stop-color="#FFB473"/>
</linearGradient>
<linearGradient id="paint4_linear_864_1708" x1="11.5621" y1="12.2429" x2="18.7498" y2="19.7431" gradientUnits="userSpaceOnUse">
<stop stop-color="#F3B68A"/>
<stop offset="1" stop-color="#FED5B8"/>
</linearGradient>
<radialGradient id="paint5_radial_864_1708" cx="0" cy="0" r="1" gradientUnits="userSpaceOnUse" gradientTransform="translate(12.5007 14.5028) rotate(71.565) scale(0.98812 0.658748)">
<stop stop-color="#040404"/>
<stop offset="1" stop-color="#767676"/>
</radialGradient>
<radialGradient id="paint6_radial_864_1708" cx="0" cy="0" r="1" gradientUnits="userSpaceOnUse" gradientTransform="translate(17.1882 14.5028) rotate(71.565) scale(0.988121 0.658748)">
<stop stop-color="#040404"/>
<stop offset="1" stop-color="#767676"/>
</radialGradient>
<linearGradient id="paint7_linear_864_1708" x1="12.5" y1="13.1251" x2="12.6562" y2="13.7275" gradientUnits="userSpaceOnUse">
<stop stop-color="#4D3F46"/>
<stop offset="1" stop-color="#6E5A64" stop-opacity="0.63"/>
</linearGradient>
<linearGradient id="paint8_linear_864_1708" x1="17.1875" y1="13.1251" x2="17.3437" y2="13.7275" gradientUnits="userSpaceOnUse">
<stop stop-color="#4D3F46"/>
<stop offset="1" stop-color="#6E5A64" stop-opacity="0.63"/>
</linearGradient>
<linearGradient id="paint9_linear_864_1708" x1="10.152" y1="10.3679" x2="14.1244" y2="20.4892" gradientUnits="userSpaceOnUse">
<stop stop-color="#EBA873"/>
<stop offset="1" stop-color="#EBA773" stop-opacity="0"/>
</linearGradient>
<linearGradient id="paint10_linear_864_1708" x1="11.2498" y1="8.43716" x2="11.2235" y2="14.3815" gradientUnits="userSpaceOnUse">
<stop stop-color="#473A41"/>
<stop offset="1" stop-color="#6E5A64"/>
</linearGradient>
<linearGradient id="paint11_linear_864_1708" x1="15.0001" y1="16.5616" x2="18.774" y2="19.7333" gradientUnits="userSpaceOnUse">
<stop stop-color="#473A41"/>
<stop offset="1" stop-color="#6E5A64"/>
</linearGradient>
<linearGradient id="paint12_linear_864_1708" x1="11.2501" y1="16.8741" x2="13.4376" y2="22.1866" gradientUnits="userSpaceOnUse">
<stop stop-color="#6E5A64"/>
<stop offset="1" stop-color="#6E5A64" stop-opacity="0"/>
</linearGradient>
<linearGradient id="paint13_linear_864_1708" x1="20.9379" y1="10.9375" x2="9.68794" y2="6.25003" gradientUnits="userSpaceOnUse">
<stop stop-color="#473A41"/>
<stop offset="1" stop-color="#6E5A64"/>
</linearGradient>
</defs>
</svg>
