<svg width="30" height="30" viewBox="0 0 30 30" fill="none" xmlns="http://www.w3.org/2000/svg">
<circle cx="15" cy="15" r="15" fill="url(#paint0_radial_864_1498)"/>
<mask id="mask0_864_1498" style="mask-type:alpha" maskUnits="userSpaceOnUse" x="0" y="0" width="30" height="30">
<circle cx="15" cy="15" r="15" fill="#C4C4C4"/>
</mask>
<g mask="url(#mask0_864_1498)">
<path d="M25.2248 22.2348C25.2577 19.9662 24.5015 19.5717 24.1234 18.2401C23.7428 16.8996 24.1301 15.9842 23.6796 14.5003C23.2604 13.1194 22.4989 12.8861 22.2659 10.9248C21.8713 7.60413 18.2876 5.89453 16.5122 5.89453C16.0102 5.89453 15.6674 6.02195 15.4369 6.17435C15.1702 6.35084 14.8294 6.35084 14.5627 6.17435C14.3322 6.02195 13.9895 5.89453 13.4874 5.89453C11.712 5.89453 8.12835 7.60413 7.73382 10.9248C7.50077 12.8861 6.73928 13.1194 6.3201 14.5003C5.86962 15.9842 6.25689 16.8996 5.87626 18.2401C5.49816 19.5717 4.74197 19.9662 4.77484 22.2348C4.81297 24.8656 3.29533 25.4568 3.88713 27.1993C4.32881 28.4998 6.71463 29.5665 6.71463 29.5665H23.2851C23.2851 29.5665 25.6709 28.4997 26.1126 27.1993C26.7043 25.4568 25.1867 24.8656 25.2248 22.2348Z" fill="url(#paint1_linear_864_1498)"/>
<path d="M14.9998 6.30669C14.8479 6.30669 14.6961 6.26259 14.5627 6.17435C14.3322 6.02195 13.9895 5.89453 13.4874 5.89453C11.712 5.89453 8.12835 7.60413 7.73382 10.9248C7.50077 12.8861 6.73928 13.1194 6.3201 14.5003C5.86962 15.9842 6.25689 16.8996 5.87626 18.2401C5.49816 19.5717 4.74197 19.9662 4.77484 22.2348C4.81297 24.8656 3.29533 25.4568 3.88713 27.1993C4.32881 28.4998 6.71463 29.5665 6.71463 29.5665H14.9998V6.30669Z" fill="url(#paint2_linear_864_1498)"/>
<path d="M22.495 25.0637L18.4202 23.6255C17.7892 23.4029 17.3673 22.8065 17.3673 22.1374V20.0977H12.6328V22.1374C12.6328 22.8065 12.2109 23.4029 11.5799 23.6255L7.5051 25.0637C6.55866 25.3978 5.92578 26.2923 5.92578 27.296V29.172C5.92578 29.8256 6.45571 30.3555 7.10937 30.3555H22.8907C23.5444 30.3555 24.0743 29.8256 24.0743 29.172V27.296C24.0743 26.2923 23.4414 25.3978 22.495 25.0637Z" fill="url(#paint3_linear_864_1498)"/>
<path d="M22.495 25.0642L19.7761 24.1045C18.706 25.5835 17.2497 27.2145 15.5546 28.1183C15.2088 28.3026 14.7913 28.3026 14.4455 28.1183C12.7503 27.2145 11.294 25.5835 10.224 24.1045L7.5051 25.0642C6.55866 25.3982 5.92578 26.2928 5.92578 27.2964V29.1724C5.92578 29.826 6.45571 30.356 7.10937 30.356H22.8907C23.5444 30.356 24.0743 29.826 24.0743 29.1724V27.2964C24.0743 26.2928 23.4414 25.3982 22.495 25.0642Z" fill="url(#paint4_linear_864_1498)"/>
<path d="M12.6329 21.171C13.3613 21.4931 14.1617 21.6758 15 21.6758C15.8384 21.6758 16.6388 21.4931 17.3672 21.171V20.0977H12.6328L12.6329 21.171Z" fill="url(#paint5_linear_864_1498)"/>
<path d="M15 20.8867C12.1674 20.8867 9.87109 18.5905 9.87109 15.7578V9.05078H20.129V15.7578C20.129 18.5905 17.8327 20.8867 15 20.8867Z" fill="url(#paint6_linear_864_1498)"/>
<path d="M9.87109 9.05078V15.7578C9.87109 18.5905 12.1674 20.8868 15 20.8868C15.2691 20.8868 15.5312 20.8598 15.7891 20.82C13.3321 20.4395 11.4492 18.3215 11.4492 15.7578V13.7061C11.4492 13.3817 11.5498 13.0683 11.7216 12.7931C11.7225 12.7917 11.7234 12.7902 11.7244 12.7887C12.3721 11.7492 12.9786 11.5964 13.6806 11.4195C14.0838 11.3179 14.5536 11.1995 15 10.902C15.4464 11.1995 15.9162 11.3179 16.3194 11.4195C17.0215 11.5964 17.6278 11.7492 18.2756 12.7887C18.8783 13.7557 19.5526 14.2902 20.1289 14.7031V9.05078H9.87109Z" fill="url(#paint7_linear_864_1498)"/>
<path d="M15 18.5195C14.4079 18.5195 13.8619 18.3296 13.5394 18.0113C13.3841 17.858 13.3826 17.6084 13.5355 17.4535C13.6893 17.2982 13.9389 17.2967 14.0934 17.4496C14.2248 17.5791 14.5407 17.7305 15 17.7305C15.4593 17.7305 15.7752 17.5791 15.9066 17.4496C16.0611 17.2966 16.3108 17.2982 16.4645 17.4535C16.6174 17.6084 16.6159 17.858 16.4606 18.0113C16.1382 18.3296 15.5922 18.5195 15 18.5195Z" fill="#A06E50"/>
<path d="M12.6328 15.7568C12.4147 15.7568 12.2383 15.5804 12.2383 15.3623V14.9678C12.2383 14.7497 12.4148 14.5732 12.6328 14.5732C12.8509 14.5732 13.0273 14.7497 13.0273 14.9678V15.3623C13.0273 15.5804 12.8509 15.7568 12.6328 15.7568Z" fill="url(#paint8_radial_864_1498)"/>
<path d="M17.3672 15.7568C17.1491 15.7568 16.9727 15.5804 16.9727 15.3623V14.9678C16.9727 14.7497 17.1491 14.5732 17.3672 14.5732C17.5853 14.5732 17.7617 14.7497 17.7617 14.9678V15.3623C17.7617 15.5804 17.5853 15.7568 17.3672 15.7568Z" fill="url(#paint9_radial_864_1498)"/>
<path d="M13.0273 14.1797H12.2383C12.0202 14.1797 11.8438 14.0032 11.8438 13.7852C11.8438 13.5671 12.0202 13.3906 12.2383 13.3906H13.0273C13.2454 13.3906 13.4219 13.5671 13.4219 13.7852C13.4219 14.0032 13.2454 14.1797 13.0273 14.1797Z" fill="url(#paint10_linear_864_1498)"/>
<path d="M17.7617 14.1797H16.9727C16.7546 14.1797 16.5781 14.0032 16.5781 13.7852C16.5781 13.5671 16.7546 13.3906 16.9727 13.3906H17.7617C17.9798 13.3906 18.1562 13.5671 18.1562 13.7852C18.1562 14.0032 17.9798 14.1797 17.7617 14.1797Z" fill="url(#paint11_linear_864_1498)"/>
<path d="M8.81526 27.2125L6.80142 25.4639C6.59508 25.632 6.4217 25.8336 6.2832 26.0585L8.29818 27.8082C8.55708 28.0332 8.70581 28.3591 8.70581 28.702V30.3553H9.49487V28.702C9.49491 28.1302 9.2472 27.5874 8.81526 27.2125Z" fill="url(#paint12_linear_864_1498)"/>
<path d="M21.203 27.2125L23.2169 25.4639C23.4232 25.632 23.5966 25.8336 23.7351 26.0585L21.7201 27.8082C21.4612 28.0332 21.3125 28.3591 21.3125 28.702V30.3553H20.5234V28.702C20.5234 28.1302 20.7711 27.5874 21.203 27.2125Z" fill="url(#paint13_linear_864_1498)"/>
<path d="M24.1236 18.2401C23.743 16.8996 24.1302 15.9842 23.6798 14.5003C23.2606 13.1194 22.499 12.8861 22.266 10.9248C21.8715 7.60413 18.2878 5.89453 16.5124 5.89453C16.0104 5.89453 15.6676 6.02195 15.4371 6.17435C15.3038 6.26259 15.1519 6.30669 15 6.30669V9.83988C16.0192 11.1221 17.5316 10.1029 18.9454 12.3715C20.147 14.2997 21.6559 14.251 22.1867 15.7712C22.3388 16.2069 22.2563 16.6724 22.2927 17.1325C22.4961 19.7032 24.4688 20.8868 25.3555 23.5695C25.271 23.1864 25.2175 22.7507 25.225 22.2348C25.2579 19.9662 24.5017 19.5717 24.1236 18.2401Z" fill="url(#paint14_linear_864_1498)"/>
<path d="M5.87647 18.2401C6.2571 16.8996 5.86983 15.9842 6.32031 14.5003C6.73949 13.1194 7.50103 12.8861 7.73403 10.9248C8.12861 7.60413 11.7123 5.89453 13.4877 5.89453C13.9897 5.89453 14.3325 6.02195 14.563 6.17435C14.6963 6.26259 14.8482 6.30669 15.0001 6.30669V9.83988C13.9809 11.1221 12.4685 10.1029 11.0547 12.3715C9.85307 14.2997 8.34418 14.251 7.81339 15.7712C7.66127 16.2069 7.74378 16.6724 7.70738 17.1325C7.50395 19.7032 5.53129 20.8868 4.64453 23.5695C4.72909 23.1864 4.78255 22.7507 4.77505 22.2348C4.74218 19.9662 5.49838 19.5717 5.87647 18.2401Z" fill="url(#paint15_linear_864_1498)"/>
</g>
<defs>
<radialGradient id="paint0_radial_864_1498" cx="0" cy="0" r="1" gradientUnits="userSpaceOnUse" gradientTransform="translate(4.6875 4.6875) rotate(48.4682) scale(29.2217)">
<stop offset="0.449021" stop-color="#FEC0B2"/>
<stop offset="1" stop-color="#FF866B"/>
</radialGradient>
<linearGradient id="paint1_linear_864_1498" x1="14.9998" y1="5.89453" x2="14.9998" y2="29.5665" gradientUnits="userSpaceOnUse">
<stop stop-color="#33282D"/>
<stop offset="1" stop-color="#6E5561"/>
</linearGradient>
<linearGradient id="paint2_linear_864_1498" x1="9.37491" y1="5.89453" x2="9.37491" y2="29.5665" gradientUnits="userSpaceOnUse">
<stop stop-color="#1A1417"/>
<stop offset="1" stop-color="#5A4650"/>
</linearGradient>
<linearGradient id="paint3_linear_864_1498" x1="11.4355" y1="23.6346" x2="16.0213" y2="29.5092" gradientUnits="userSpaceOnUse">
<stop stop-color="#D4A06C"/>
<stop offset="1" stop-color="#FABD80"/>
</linearGradient>
<linearGradient id="paint4_linear_864_1498" x1="8.74988" y1="24.6878" x2="20.9374" y2="29.3753" gradientUnits="userSpaceOnUse">
<stop stop-color="#ACED8E"/>
<stop offset="1" stop-color="#A6FFAA"/>
</linearGradient>
<linearGradient id="paint5_linear_864_1498" x1="12.7847" y1="20.3222" x2="14.001" y2="22.807" gradientUnits="userSpaceOnUse">
<stop stop-color="#C58646"/>
<stop offset="1" stop-color="#C68748" stop-opacity="0.06"/>
</linearGradient>
<linearGradient id="paint6_linear_864_1498" x1="10.3847" y1="10.397" x2="20.0725" y2="15.9069" gradientUnits="userSpaceOnUse">
<stop stop-color="#EDB379"/>
<stop offset="1" stop-color="#FFC182"/>
</linearGradient>
<linearGradient id="paint7_linear_864_1498" x1="10.2002" y1="10.7351" x2="16.5034" y2="13.6332" gradientUnits="userSpaceOnUse">
<stop stop-color="#C58646"/>
<stop offset="1" stop-color="#C68748" stop-opacity="0.06"/>
</linearGradient>
<radialGradient id="paint8_radial_864_1498" cx="0" cy="0" r="1" gradientUnits="userSpaceOnUse" gradientTransform="translate(12.4757 14.9272) rotate(71.5651) scale(0.99803 0.665353)">
<stop stop-color="#040404"/>
<stop offset="1" stop-color="#767676"/>
</radialGradient>
<radialGradient id="paint9_radial_864_1498" cx="0" cy="0" r="1" gradientUnits="userSpaceOnUse" gradientTransform="translate(17.2101 14.9272) rotate(71.5651) scale(0.99803 0.665353)">
<stop stop-color="#040404"/>
<stop offset="1" stop-color="#767676"/>
</radialGradient>
<linearGradient id="paint10_linear_864_1498" x1="11.9466" y1="13.5935" x2="12.107" y2="14.4125" gradientUnits="userSpaceOnUse">
<stop stop-color="#403239"/>
<stop offset="1" stop-color="#806371"/>
</linearGradient>
<linearGradient id="paint11_linear_864_1498" x1="16.681" y1="13.5935" x2="16.8414" y2="14.4125" gradientUnits="userSpaceOnUse">
<stop stop-color="#403239"/>
<stop offset="1" stop-color="#806371"/>
</linearGradient>
<linearGradient id="paint12_linear_864_1498" x1="7.81301" y1="24.9998" x2="7.88903" y2="30.3553" gradientUnits="userSpaceOnUse">
<stop stop-color="#87BA70"/>
<stop offset="1" stop-color="#87BA70" stop-opacity="0"/>
</linearGradient>
<linearGradient id="paint13_linear_864_1498" x1="22.1873" y1="24.9998" x2="22.1293" y2="30.3553" gradientUnits="userSpaceOnUse">
<stop stop-color="#86C985"/>
<stop offset="1" stop-color="#86C985" stop-opacity="0"/>
</linearGradient>
<linearGradient id="paint14_linear_864_1498" x1="15.9373" y1="6.25006" x2="24.9998" y2="23.1251" gradientUnits="userSpaceOnUse">
<stop stop-color="#5C4B53"/>
<stop offset="1" stop-color="#7A646F"/>
</linearGradient>
<linearGradient id="paint15_linear_864_1498" x1="11.5624" y1="5.93756" x2="4.68742" y2="26.5626" gradientUnits="userSpaceOnUse">
<stop offset="0.00373261" stop-color="#4A3B43"/>
<stop offset="1" stop-color="#826875"/>
</linearGradient>
</defs>
</svg>
