<svg width="22" height="22" viewBox="0 0 22 22" fill="none" xmlns="http://www.w3.org/2000/svg">
<path d="M2.75 8.7998C2.76178 8.23998 2.80707 7.12892 2.89223 6.77128C3.32709 4.75992 4.80378 3.48196 6.91464 3.2998H15.0863C17.179 3.4915 18.6738 4.77804 19.1087 6.77128C19.1929 7.11938 19.2382 8.23903 19.25 8.7998H2.75Z" fill="white"/>
<path d="M14.713 16.4246C14.2964 16.416 13.9613 16.088 13.9613 15.6909C13.9522 15.2938 14.2873 14.9666 14.7039 14.958H14.713C15.1386 14.958 15.4827 15.286 15.4827 15.6909C15.4827 16.0966 15.1386 16.4246 14.713 16.4246ZM11.0181 13.248C10.6015 13.2661 10.2574 12.9545 10.2393 12.5583C10.2393 12.1612 10.5653 11.8332 10.9819 11.815C11.3894 11.815 11.7245 12.118 11.7335 12.5056C11.7516 12.9035 11.4256 13.2316 11.0181 13.248ZM11.0181 16.3815C10.6015 16.3996 10.2574 16.088 10.2393 15.6909C10.2393 15.2938 10.5653 14.9666 10.9819 14.9485C11.3894 14.9485 11.7245 15.2515 11.7335 15.64C11.7516 16.037 11.4256 16.3651 11.0181 16.3815ZM7.2961 13.248C6.87953 13.2661 6.5354 12.9545 6.51729 12.5583C6.51729 12.1612 6.8433 11.8332 7.25988 11.815C7.6674 11.815 8.00247 12.118 8.01153 12.5056C8.02964 12.9035 7.70362 13.2316 7.2961 13.248ZM7.28705 16.3815C6.87047 16.3996 6.52634 16.088 6.50823 15.6909C6.50823 15.2938 6.83425 14.9666 7.25082 14.9485C7.65834 14.9485 7.99341 15.2515 8.00247 15.64C8.02058 16.037 7.69457 16.3651 7.28705 16.3815ZM13.9704 12.5496C13.9704 12.1525 14.2964 11.8332 14.713 11.8245C15.1205 11.8245 15.4465 12.1344 15.4646 12.5151C15.4737 12.9122 15.1476 13.2402 14.7401 13.248C14.3235 13.2566 13.9794 12.9545 13.9704 12.5583V12.5496ZM2.75 8.7998V15.3715C2.75 18.0993 4.57931 19.7998 7.45005 19.7998H14.5409C17.4388 19.7998 19.25 18.1338 19.25 15.4241V8.7998H2.75Z" fill="#2D99FF"/>
<path opacity="0.4" d="M2.75 8.7998C2.76178 8.23998 2.80707 7.12892 2.89223 6.77128C3.32709 4.75992 4.80378 3.48196 6.91464 3.2998H15.0863C17.179 3.4915 18.6738 4.77804 19.1087 6.77128C19.1929 7.11938 19.2382 8.23903 19.25 8.7998H2.75Z" fill="#2D99FF"/>
<path d="M7.59911 6.2394C7.98163 6.2394 8.26852 5.94987 8.26852 5.5618V2.87868C8.26852 2.4906 7.98163 2.2002 7.59911 2.2002C7.21658 2.2002 6.92969 2.4906 6.92969 2.87868V5.5618C6.92969 5.94987 7.21658 6.2394 7.59911 6.2394Z" fill="#2D99FF"/>
<path d="M14.3979 6.2394C14.7718 6.2394 15.0674 5.94987 15.0674 5.5618V2.87868C15.0674 2.4906 14.7718 2.2002 14.3979 2.2002C14.0154 2.2002 13.7285 2.4906 13.7285 2.87868V5.5618C13.7285 5.94987 14.0154 6.2394 14.3979 6.2394Z" fill="#2D99FF"/>
</svg>
