<svg width="22" height="22" viewBox="0 0 22 22" fill="none" xmlns="http://www.w3.org/2000/svg">
<path fill-rule="evenodd" clip-rule="evenodd" d="M5.07083 2.52407L2.97367 2.20752C2.61315 2.15476 2.27022 2.39218 2.20866 2.7527C2.14711 3.10442 2.39332 3.44735 2.74505 3.50891L4.07281 3.73753L4.88178 13.3229C4.97851 14.4828 5.94575 15.3797 7.11524 15.3797H16.7086C17.8253 15.3797 18.775 14.5628 18.9332 13.454L19.7686 7.68565C19.8477 7.15894 19.7862 6.57859 19.4344 6.17411C19.0827 5.76962 18.731 5.58497 18.1946 5.58497H6.31946C6.03808 5.58497 5.80946 5.37393 5.78308 5.09167L5.61601 3.12201C5.58963 2.82304 5.3698 2.57771 5.07083 2.52407ZM12.866 8.83755H15.3017C15.671 8.83755 15.9611 9.12773 15.9611 9.49704C15.9611 9.85756 15.671 10.1565 15.3017 10.1565H12.866C12.4966 10.1565 12.2065 9.85756 12.2065 9.49704C12.2065 9.12773 12.4966 8.83755 12.866 8.83755ZM9.40214 18.106C9.40214 17.3673 8.80421 16.7694 8.07438 16.7694C7.33575 16.7694 6.73782 17.3673 6.73782 18.106C6.73782 18.8358 7.33575 19.4337 8.07438 19.4337C8.80421 19.4337 9.40214 18.8358 9.40214 18.106ZM17.0944 18.106C17.0944 17.3673 16.4965 16.7694 15.7667 16.7694C15.028 16.7694 14.4301 17.3673 14.4301 18.106C14.4301 18.8358 15.028 19.4337 15.7667 19.4337C16.4965 19.4337 17.0944 18.8358 17.0944 18.106Z" fill="white"/>
<path opacity="0.4" d="M8.07484 16.7695C8.80467 16.7695 9.4026 17.3675 9.4026 18.1061C9.4026 18.8359 8.80467 19.4339 8.07484 19.4339C7.33621 19.4339 6.73828 18.8359 6.73828 18.1061C6.73828 17.3675 7.33621 16.7695 8.07484 16.7695ZM15.7671 16.7695C16.497 16.7695 17.0949 17.3675 17.0949 18.1061C17.0949 18.8359 16.497 19.4339 15.7671 19.4339C15.0285 19.4339 14.4306 18.8359 14.4306 18.1061C14.4306 17.3675 15.0285 16.7695 15.7671 16.7695Z" fill="#1A1926"/>
<path d="M2.88406 2.20028L2.97367 2.20752L5.07083 2.52407C5.3698 2.57771 5.58963 2.82304 5.61601 3.12201L5.78308 5.09167C5.80946 5.37393 6.03808 5.58497 6.31946 5.58497H18.1946C18.731 5.58497 19.0827 5.76962 19.4344 6.17411C19.7862 6.57859 19.8477 7.15894 19.7686 7.68565L18.9332 13.454C18.775 14.5628 17.8253 15.3797 16.7086 15.3797H7.11524C5.94575 15.3797 4.97851 14.4828 4.88178 13.3229L4.07281 3.73753L2.74505 3.50891C2.39332 3.44735 2.14711 3.10442 2.20866 2.7527C2.27022 2.39218 2.61315 2.15476 2.97367 2.20752L2.88406 2.20028ZM15.3017 8.83755H12.866C12.4966 8.83755 12.2065 9.12773 12.2065 9.49704C12.2065 9.85756 12.4966 10.1565 12.866 10.1565H15.3017C15.671 10.1565 15.9611 9.85756 15.9611 9.49704C15.9611 9.12773 15.671 8.83755 15.3017 8.83755Z" fill="#1A1926"/>
</svg>
