<svg width="22" height="22" viewBox="0 0 22 22" fill="none" xmlns="http://www.w3.org/2000/svg">
<path fill-rule="evenodd" clip-rule="evenodd" d="M2.19922 11.0134C2.19922 6.37766 5.90402 2.2002 11.0168 2.2002C16.0152 2.2002 19.7992 6.29834 19.7992 10.987C19.7992 16.4247 15.364 19.8002 10.9992 19.8002C9.55602 19.8002 7.9553 19.4124 6.6705 18.6545C6.22082 18.3813 5.84242 18.1786 5.35842 18.3372L3.58082 18.866C3.13202 19.007 2.72722 18.6545 2.85922 18.1786L3.44882 16.2044C3.54562 15.9312 3.52802 15.6404 3.38722 15.4112C2.63042 14.0187 2.19922 12.494 2.19922 11.0134Z" fill="white"/>
<path opacity="0.25" d="M11.0168 2.2002C5.90402 2.2002 2.19922 6.37766 2.19922 11.0134C2.19922 12.494 2.63042 14.0187 3.38722 15.4112C3.52802 15.6404 3.54562 15.9312 3.44882 16.2044L2.85922 18.1786C2.72722 18.6545 3.13202 19.007 3.58082 18.866L5.35842 18.3372C5.84242 18.1786 6.22082 18.3813 6.6705 18.6545C7.9553 19.4124 9.55602 19.8002 10.9992 19.8002C15.364 19.8002 19.7992 16.4247 19.7992 10.987C19.7992 6.29834 16.0152 2.2002 11.0168 2.2002Z" fill="#1A1926"/>
<path d="M8.52493 9.62514C9.28737 9.62514 9.89947 10.2382 9.89947 11.0017C9.89947 11.7546 9.28737 12.3676 8.52493 12.3783C7.77323 12.3783 7.15039 11.7546 7.15039 11.0017C7.15039 10.2382 7.76249 9.62514 8.52493 9.62514ZM13.4759 9.62514C14.2383 9.62514 14.8504 10.2382 14.8504 11.0017C14.8504 11.7546 14.2383 12.3783 13.4759 12.3783C12.7134 12.3676 12.1013 11.7546 12.1013 10.991C12.1013 10.2382 12.7241 9.61438 13.4759 9.62514Z" fill="#1A1926"/>
</svg>
