<svg width="22" height="22" viewBox="0 0 22 22" fill="none" xmlns="http://www.w3.org/2000/svg">
<path fill-rule="evenodd" clip-rule="evenodd" d="M12.9461 7.49073C12.9461 9.81724 11.0423 11.6816 8.6666 11.6816C6.2918 11.6816 4.38713 9.81724 4.38713 7.49073C4.38713 5.16422 6.2918 3.2998 8.6666 3.2998C11.0423 3.2998 12.9461 5.16422 12.9461 7.49073ZM2.19922 16.4271C2.19922 14.2734 5.17848 13.7346 8.66663 13.7346C12.1737 13.7346 15.134 14.292 15.134 16.4473C15.134 18.601 12.1548 19.1398 8.66663 19.1398C5.15954 19.1398 2.19922 18.5824 2.19922 16.4271ZM14.6718 7.56671C14.6718 8.75146 14.3084 9.85696 13.6712 10.7752C13.6049 10.8697 13.6635 10.997 13.7789 11.0173C13.939 11.0434 14.1035 11.0594 14.2714 11.0628C15.9419 11.1058 17.441 10.0526 17.8551 8.46645C18.4691 6.11295 16.6677 3.99978 14.373 3.99978C14.1242 3.99978 13.8856 4.02508 13.6532 4.07146C13.6213 4.07821 13.5869 4.09338 13.5696 4.12037C13.5472 4.15494 13.5636 4.19963 13.586 4.22915C14.2757 5.17611 14.6718 6.32882 14.6718 7.56671ZM17.4384 12.7178C18.5612 12.9329 19.2991 13.3705 19.6048 14.0088C19.864 14.5316 19.864 15.1388 19.6048 15.6616C19.1373 16.6499 17.6287 16.9678 17.0423 17.0496C16.9209 17.0664 16.8236 16.9652 16.8365 16.8455C17.1362 14.1067 14.7536 12.8081 14.1371 12.5095C14.1113 12.4952 14.1052 12.475 14.1078 12.4615C14.1095 12.453 14.1207 12.4396 14.1405 12.437C15.4743 12.4117 16.9088 12.5913 17.4384 12.7178Z" fill="white"/>
<path d="M8.66663 13.7344C5.17848 13.7344 2.19922 14.2732 2.19922 16.4269C2.19922 18.5822 5.15954 19.1396 8.66663 19.1396C12.1548 19.1396 15.134 18.6007 15.134 16.4471C15.134 14.2918 12.1737 13.7344 8.66663 13.7344Z" fill="#1A1926"/>
<path opacity="0.3" d="M8.66813 11.6816C11.0438 11.6816 12.9476 9.81724 12.9476 7.49073C12.9476 5.16422 11.0438 3.2998 8.66813 3.2998C6.29333 3.2998 4.38867 5.16422 4.38867 7.49073C4.38867 9.81724 6.29333 11.6816 8.66813 11.6816Z" fill="#1A1926"/>
<path opacity="0.3" d="M14.6734 7.56692C14.6734 8.75168 14.31 9.85717 13.6728 10.7755C13.6065 10.8699 13.6651 10.9972 13.7805 11.0175C13.9406 11.0436 14.1051 11.0596 14.273 11.063C15.9434 11.106 17.4426 10.0528 17.8567 8.46666C18.4707 6.11317 16.6693 4 14.3746 4C14.1258 4 13.8872 4.0253 13.6548 4.07168C13.6229 4.07842 13.5885 4.0936 13.5712 4.12058C13.5488 4.15516 13.5652 4.19985 13.5876 4.22936C14.2773 5.17633 14.6734 6.32904 14.6734 7.56692Z" fill="#1A1926"/>
<path d="M19.605 14.0088C19.2993 13.3704 18.5614 12.9328 17.4385 12.7178C16.909 12.5913 15.4745 12.4117 14.1407 12.437C14.1209 12.4395 14.1097 12.453 14.108 12.4614C14.1054 12.4749 14.1114 12.4952 14.1372 12.5095C14.7538 12.808 17.1363 14.1066 16.8367 16.8455C16.8237 16.9652 16.921 17.0664 17.0425 17.0495C17.6288 16.9677 19.1374 16.6498 19.605 15.6615C19.8641 15.1387 19.8641 14.5316 19.605 14.0088Z" fill="#1A1926"/>
</svg>
