<svg width="48" height="48" viewBox="0 0 48 48" fill="none" xmlns="http://www.w3.org/2000/svg">
<circle cx="23.998" cy="24" r="24" fill="url(#paint0_radial_864_3527)"/>
<path d="M15.0514 30C14.6554 30 14.3494 29.898 14.1334 29.694C13.9294 29.478 13.8274 29.172 13.8274 28.776V18.534C13.8274 18.138 13.9294 17.838 14.1334 17.634C14.3494 17.418 14.6554 17.31 15.0514 17.31H18.5434C20.6674 17.31 22.3054 17.856 23.4574 18.948C24.6214 20.04 25.2034 21.606 25.2034 23.646C25.2034 24.666 25.0534 25.572 24.7534 26.364C24.4654 27.144 24.0334 27.804 23.4574 28.344C22.8934 28.884 22.1974 29.298 21.3694 29.586C20.5534 29.862 19.6114 30 18.5434 30H15.0514ZM16.1314 28.092H18.3994C19.1434 28.092 19.7854 28.002 20.3254 27.822C20.8774 27.63 21.3334 27.354 21.6934 26.994C22.0654 26.622 22.3414 26.16 22.5214 25.608C22.7014 25.044 22.7914 24.39 22.7914 23.646C22.7914 22.158 22.4254 21.048 21.6934 20.316C20.9614 19.584 19.8634 19.218 18.3994 19.218H16.1314V28.092ZM30.9769 30.144C30.6049 30.144 30.3169 30.042 30.1129 29.838C29.9209 29.622 29.8249 29.328 29.8249 28.956V19.236H26.3149C26.0029 19.236 25.7569 19.152 25.5769 18.984C25.4089 18.804 25.3249 18.564 25.3249 18.264C25.3249 17.952 25.4089 17.718 25.5769 17.562C25.7569 17.394 26.0029 17.31 26.3149 17.31H35.6389C35.9509 17.31 36.1909 17.394 36.3589 17.562C36.5389 17.718 36.6289 17.952 36.6289 18.264C36.6289 18.564 36.5389 18.804 36.3589 18.984C36.1909 19.152 35.9509 19.236 35.6389 19.236H32.1289V28.956C32.1289 29.328 32.0329 29.622 31.8409 29.838C31.6489 30.042 31.3609 30.144 30.9769 30.144Z" fill="white"/>
<defs>
<radialGradient id="paint0_radial_864_3527" cx="0" cy="0" r="1" gradientUnits="userSpaceOnUse" gradientTransform="translate(6.49804 6.5) rotate(49.1446) scale(48.9183)">
<stop stop-color="#FF6C7E"/>
<stop offset="1" stop-color="#FFC259"/>
</radialGradient>
</defs>
</svg>
