<svg width="22" height="22" viewBox="0 0 22 22" fill="none" xmlns="http://www.w3.org/2000/svg">
<path fill-rule="evenodd" clip-rule="evenodd" d="M16.9977 5.13159C16.4501 4.96272 15.871 4.8963 15.2896 4.94126H12.7075C12.7074 4.94126 12.7073 4.94126 12.7072 4.94126H12.6795C12.0446 4.93717 11.4438 4.65131 11.0409 4.1604L10.188 2.9813C9.78602 2.47882 9.17348 2.19047 8.52924 2.20045H6.69831C3.41203 2.20045 2.19922 4.12917 2.19922 7.40877V9.91921C2.19922 9.92052 2.19922 9.92183 2.19922 9.92314V10.954V14.5458C2.19922 14.9355 2.23045 15.3246 2.29311 15.7093C2.39167 16.3891 2.6258 17.0423 2.98167 17.6302C3.14378 17.914 3.34093 18.1763 3.56851 18.4111C4.61448 19.3677 6.00125 19.8656 7.41816 19.7932H14.5697C15.9844 19.8661 17.3689 19.368 18.4116 18.4111C18.6419 18.1768 18.8417 17.9144 19.0062 17.6302C19.3642 17.0419 19.6034 16.3893 19.7104 15.7093C19.7666 15.324 19.7954 14.9352 19.7965 14.5458V10.9543C19.7965 10.9542 19.7965 10.954 19.7965 10.9539V9.92314C19.7965 9.92301 19.7965 9.92289 19.7965 9.92276C19.8072 9.57014 19.7929 9.21788 19.7543 8.86853C19.5684 6.84449 18.7555 5.58498 16.9977 5.13159ZM6.57311 12.664H15.5009C15.7176 12.6664 15.9205 12.7706 16.0486 12.9451C16.1599 13.0749 16.2161 13.243 16.2051 13.4136C16.199 13.6076 16.1153 13.7911 15.9727 13.9232C15.8301 14.0552 15.6404 14.1248 15.4461 14.1163H6.57311C6.17123 14.1163 5.84543 13.7912 5.84543 13.3901C5.84543 12.9891 6.17123 12.664 6.57311 12.664Z" fill="white"/>
<path opacity="0.4" d="M15.2974 4.94126H12.7075C12.0623 4.94552 11.4498 4.65852 11.0409 4.1604L10.188 2.9813C9.78602 2.47882 9.17348 2.19047 8.52924 2.20045H6.69831C3.41203 2.20045 2.19922 4.12917 2.19922 7.40877V10.9539C2.19514 11.3437 19.7954 11.3432 19.7965 10.9539V9.92314C19.8122 6.64353 18.6307 4.94126 15.2974 4.94126Z" fill="#1A1926"/>
<path d="M15.2896 4.94142C16.4378 4.85262 17.5775 5.19828 18.482 5.90969C18.5862 5.99802 18.683 6.09464 18.7715 6.1986C19.053 6.52779 19.2706 6.90647 19.4131 7.31523C19.6935 8.15535 19.8232 9.03821 19.7965 9.9233V14.546C19.7954 14.9353 19.7666 15.3241 19.7104 15.7095C19.6034 16.3895 19.3642 17.042 19.0062 17.6304C18.8417 17.9146 18.6419 18.1769 18.4116 18.4112C17.3689 19.3681 15.9844 19.8662 14.5697 19.7933H7.41816C6.00125 19.8657 4.61448 19.3678 3.56851 18.4112C3.34093 18.1765 3.14378 17.9141 2.98167 17.6304C2.6258 17.0424 2.39167 16.3893 2.29311 15.7095C2.23045 15.3248 2.19922 14.9357 2.19922 14.546V9.9233C2.19922 9.53723 2.21996 9.15143 2.26182 8.76763C2.28529 8.58803 2.34006 8.41624 2.34006 8.24445C2.41949 7.78129 2.56438 7.33171 2.77041 6.90918C3.38072 5.60515 4.63264 4.94142 6.68265 4.94142H15.2896ZM15.5009 12.6641H6.57311C6.17123 12.6641 5.84543 12.9892 5.84543 13.3903C5.84543 13.7914 6.17123 14.1165 6.57311 14.1165H15.4461C15.6404 14.125 15.8301 14.0554 15.9727 13.9233C16.1153 13.7913 16.199 13.6078 16.2051 13.4137C16.2161 13.2432 16.1599 13.0751 16.0486 12.9452C15.9205 12.7707 15.7176 12.6666 15.5009 12.6641Z" fill="#1A1926"/>
</svg>
