<svg width="64" height="64" viewBox="0 0 64 64" fill="none" xmlns="http://www.w3.org/2000/svg">
<g filter="url(#filter0_d_864_1158)">
<path fill-rule="evenodd" clip-rule="evenodd" d="M32 0C45.2548 0 56 10.7452 56 24C56 37.2548 45.2548 48 32 48C18.7452 48 8 37.2548 8 24C8 10.7452 18.7452 0 32 0Z" fill="url(#paint0_radial_864_1158)"/>
<path fill-rule="evenodd" clip-rule="evenodd" d="M32 0C45.2548 0 56 10.7452 56 24C56 37.2548 45.2548 48 32 48C18.7452 48 8 37.2548 8 24C8 10.7452 18.7452 0 32 0Z" fill="url(#paint1_radial_864_1158)"/>
<path d="M28.2869 24.0003C28.2869 21.949 29.9494 20.2857 32.0007 20.2857C34.0521 20.2857 35.7155 21.949 35.7155 24.0003C35.7155 26.0515 34.0521 27.7149 32.0007 27.7149C29.9494 27.7149 28.2869 26.0515 28.2869 24.0003V24.0003ZM26.2788 24.0003C26.2788 27.1604 28.8405 29.722 32.0007 29.722C35.161 29.722 37.7227 27.1604 37.7227 24.0003C37.7227 20.8402 35.161 18.2786 32.0007 18.2786C28.8405 18.2786 26.2789 20.84 26.2789 24.0003H26.2788ZM36.6121 18.0517C36.612 18.3161 36.6903 18.5747 36.8372 18.7947C36.984 19.0146 37.1928 19.1861 37.4371 19.2874C37.6814 19.3887 37.9502 19.4153 38.2096 19.3638C38.469 19.3123 38.7074 19.185 38.8945 18.9981C39.0815 18.8112 39.209 18.573 39.2607 18.3136C39.3124 18.0543 39.286 17.7854 39.1849 17.541C39.0838 17.2966 38.9125 17.0877 38.6926 16.9407C38.4728 16.7937 38.2143 16.7152 37.9498 16.7151H37.9493C37.5948 16.7152 37.2548 16.8561 37.0041 17.1067C36.7534 17.3573 36.6124 17.6972 36.6121 18.0517V18.0517ZM27.4988 33.0704C26.4124 33.0209 25.8219 32.84 25.4295 32.6871C24.9092 32.4845 24.538 32.2433 24.1477 31.8536C23.7574 31.4639 23.5159 31.093 23.3142 30.5728C23.1612 30.1806 22.9803 29.5899 22.9309 28.5035C22.8769 27.329 22.8661 26.9761 22.8661 24.0005C22.8661 21.0248 22.8777 20.6729 22.9309 19.4974C22.9804 18.411 23.1627 17.8215 23.3142 17.4281C23.5167 16.9079 23.758 16.5367 24.1477 16.1464C24.5375 15.7562 24.9083 15.5146 25.4295 15.313C25.8217 15.16 26.4124 14.979 27.4988 14.9296C28.6734 14.8756 29.0263 14.8648 32.0007 14.8648C34.9752 14.8648 35.3284 14.8763 36.504 14.9298C37.5904 14.9793 38.1799 15.1616 38.5733 15.3131C39.0936 15.5148 39.4648 15.7569 39.8551 16.1466C40.2453 16.5363 40.486 16.9081 40.6886 17.4283C40.8416 17.8205 41.0225 18.4112 41.0719 19.4976C41.1259 20.6731 41.1367 21.025 41.1367 24.0006C41.1367 26.9763 41.1259 27.3282 41.0719 28.5037C41.0224 29.5901 40.8406 30.1806 40.6886 30.573C40.486 31.0932 40.2448 31.4644 39.8551 31.8538C39.4653 32.2431 39.0936 32.4847 38.5733 32.6873C38.1811 32.8402 37.5904 33.0212 36.504 33.0706C35.3294 33.1246 34.9765 33.1354 32.0007 33.1354C29.0249 33.1354 28.6731 33.1246 27.4988 33.0706V33.0704ZM27.4066 12.9249C26.2203 12.9789 25.4097 13.167 24.7018 13.4425C23.9691 13.7269 23.348 14.1085 22.7278 14.7277C22.1076 15.3469 21.727 15.9681 21.4425 16.7016C21.167 17.4099 20.9789 18.2201 20.9249 19.4063C20.87 20.5944 20.8574 20.9742 20.8574 24.0003C20.8574 27.0263 20.87 27.4062 20.9249 28.5943C20.9789 29.7806 21.167 30.5906 21.4425 31.2989C21.727 32.0316 22.1077 32.6539 22.7278 33.2728C23.3479 33.8917 23.9682 34.2728 24.7018 34.5581C25.411 34.8335 26.2203 35.0216 27.4066 35.0757C28.5953 35.1297 28.9746 35.1431 32.0007 35.1431C35.0269 35.1431 35.4067 35.1306 36.5949 35.0757C37.7812 35.0216 38.5913 34.8335 39.2997 34.5581C40.0324 34.2728 40.6535 33.892 41.2736 33.2728C41.8938 32.6536 42.2737 32.0316 42.559 31.2989C42.8344 30.5906 43.0234 29.7805 43.0765 28.5943C43.1306 27.4053 43.1431 27.0263 43.1431 24.0003C43.1431 20.9742 43.1306 20.5944 43.0765 19.4063C43.0225 18.22 42.8344 17.4095 42.559 16.7016C42.2737 15.969 41.8929 15.3479 41.2736 14.7277C40.6544 14.1076 40.0324 13.7269 39.3006 13.4425C38.5913 13.167 37.7812 12.978 36.5958 12.9249C35.4075 12.8706 35.0278 12.8574 32.0021 12.8574C28.9763 12.8574 28.5958 12.87 27.407 12.9249" fill="white"/>
</g>
<defs>
<filter id="filter0_d_864_1158" x="0" y="0" width="64" height="64" filterUnits="userSpaceOnUse" color-interpolation-filters="sRGB">
<feFlood flood-opacity="0" result="BackgroundImageFix"/>
<feColorMatrix in="SourceAlpha" type="matrix" values="0 0 0 0 0 0 0 0 0 0 0 0 0 0 0 0 0 0 127 0" result="hardAlpha"/>
<feOffset dy="8"/>
<feGaussianBlur stdDeviation="4"/>
<feComposite in2="hardAlpha" operator="out"/>
<feColorMatrix type="matrix" values="0 0 0 0 0.905882 0 0 0 0 0.345098 0 0 0 0 0.337255 0 0 0 0.05 0"/>
<feBlend mode="normal" in2="BackgroundImageFix" result="effect1_dropShadow_864_1158"/>
<feBlend mode="normal" in="SourceGraphic" in2="effect1_dropShadow_864_1158" result="shape"/>
</filter>
<radialGradient id="paint0_radial_864_1158" cx="0" cy="0" r="1" gradientUnits="userSpaceOnUse" gradientTransform="translate(11.1065 46.9485) scale(60.9422 60.9422)">
<stop offset="0.216911" stop-color="#FA8F21"/>
<stop offset="1" stop-color="#D82D7E"/>
</radialGradient>
<radialGradient id="paint1_radial_864_1158" cx="0" cy="0" r="1" gradientUnits="userSpaceOnUse" gradientTransform="translate(41.2479 45.4072) scale(53.6297 53.6297)">
<stop offset="0.698466" stop-color="#8C3AAA" stop-opacity="0"/>
<stop offset="1" stop-color="#8C3AAA"/>
</radialGradient>
</defs>
</svg>
