<svg width="33" height="30" viewBox="0 0 33 30" fill="none" xmlns="http://www.w3.org/2000/svg">
<path d="M17.4155 26.1593C13.1288 26.1593 10.2699 30.5348 6.09657 29.555C-8.36648 26.1593 6.09658 0 16.5352 0C21.6022 0 28.798 7.37455 26.3449 10.6901C23.7038 13.5827 20.6915 9.5582 15.4033 9.5582C8.10887 9.5582 6.09657 18.4786 11.0015 20.6256C16.3948 22.9864 20.0567 15.8465 25.3388 15.8465C32.6623 15.8465 35.0228 27.2912 28.483 29.8065C25.3388 31.0158 21.7023 26.1593 17.4155 26.1593Z" fill="url(#paint0_radial_864_2433)"/>
<path fill-rule="evenodd" clip-rule="evenodd" d="M15.4082 26.4697C16.0467 26.2772 16.7116 26.1594 17.4149 26.1594C19.4519 26.1594 21.3422 27.2561 23.1025 28.2774C25.0466 29.4053 26.8322 30.4413 28.4823 29.8066C30.1545 29.1634 31.2448 27.9364 31.819 26.4662C30.8385 23.8054 28.5895 21.6318 25.398 21.6318C23.097 21.6318 21.1035 22.9867 19.1405 24.3208C17.9073 25.159 16.6861 25.9889 15.4082 26.4697Z" fill="url(#paint1_radial_864_2433)"/>
<path d="M21.0093 10.8795L21.0093 10.8795C23.1599 11.7197 24.8151 12.3664 26.3457 10.6901C27.7869 8.74223 25.8976 5.39332 23.0663 2.96193C23.0153 2.91809 22.9595 2.87974 22.9003 2.84787C21.6453 2.17316 20.3554 1.76074 19.177 1.76074C12.2419 1.76074 8.37086 8.81085 8.31643 16.1618C8.3592 13.029 10.854 9.55823 15.4041 9.55823C17.6276 9.55823 19.4488 10.2698 21.0093 10.8795Z" fill="url(#paint2_radial_864_2433)"/>
<defs>
<radialGradient id="paint0_radial_864_2433" cx="0" cy="0" r="1" gradientUnits="userSpaceOnUse" gradientTransform="translate(-9.5 3) rotate(27.7451) scale(48.386 55.3472)">
<stop stop-color="#BE40C0"/>
<stop offset="1" stop-color="#FBA82B"/>
</radialGradient>
<radialGradient id="paint1_radial_864_2433" cx="0" cy="0" r="1" gradientUnits="userSpaceOnUse" gradientTransform="translate(20.4993 24.0002) rotate(24.2602) scale(21.1715 16.3506)">
<stop stop-color="#48CCE0"/>
<stop offset="0.38" stop-color="#505ADD"/>
<stop offset="0.682" stop-color="#BE40C0"/>
<stop offset="0.943" stop-color="#FBA82B"/>
</radialGradient>
<radialGradient id="paint2_radial_864_2433" cx="0" cy="0" r="1" gradientUnits="userSpaceOnUse" gradientTransform="translate(-7.4992 -3.49951) rotate(26.6349) scale(39.066 40.6626)">
<stop offset="0.310718" stop-color="#48CCE0"/>
<stop offset="0.399794" stop-color="#505ADD"/>
<stop offset="0.691985" stop-color="#BE40C0"/>
<stop offset="0.943" stop-color="#FBA82B"/>
</radialGradient>
</defs>
</svg>
