<svg width="22" height="22" viewBox="0 0 22 22" fill="none" xmlns="http://www.w3.org/2000/svg">
<path fill-rule="evenodd" clip-rule="evenodd" d="M15.4257 3.2998C17.0766 3.2998 18.5761 4.21676 19.3382 5.65292C19.5089 5.97412 19.4279 6.37452 19.1437 6.60156L12.6097 11.8279C12.1521 12.1975 11.5977 12.3814 11.0433 12.3814H11.0345H11.0257C10.4713 12.3814 9.9169 12.1975 9.4593 11.8279L2.9253 6.60156C2.64106 6.37452 2.5601 5.97412 2.73082 5.65292C3.4929 4.21676 4.99242 3.2998 6.6433 3.2998H15.4257ZM15.3728 19.1403C17.828 19.1315 19.7992 17.1427 19.7992 14.6875C19.7992 14.6875 19.7992 10.8472 19.7904 8.90329C19.7895 8.53633 19.3654 8.33041 19.0767 8.56009C17.8486 9.53565 16.1073 10.929 14.8488 11.936C13.9322 12.6694 13.2717 13.1979 13.252 13.2109C12.6272 13.7213 11.8352 14.0038 11.0256 14.0038C10.216 14.0038 9.42402 13.7213 8.79922 13.2206C8.75258 13.181 5.01346 10.1564 2.92258 8.49761C2.63482 8.26881 2.21242 8.47473 2.21154 8.84257C2.2045 10.8015 2.19922 14.6963 2.19922 14.6963V14.7051C2.19922 17.1603 4.19682 19.1403 6.64322 19.1403H15.364H15.3728Z" fill="white"/>
<path opacity="0.25" d="M19.7992 14.6873C19.7992 17.1425 17.828 19.1313 15.3728 19.1401H15.364H6.64322C4.19682 19.1401 2.19922 17.1601 2.19922 14.7049V14.6961C2.19922 14.6961 2.2045 10.8012 2.21154 8.84236C2.21242 8.47452 2.63482 8.2686 2.92258 8.4974C5.01346 10.1562 8.75258 13.1808 8.79922 13.2204C9.42402 13.7211 10.216 14.0036 11.0256 14.0036C11.8352 14.0036 12.6272 13.7211 13.252 13.2107C13.2987 13.1799 16.9542 10.246 19.0767 8.55988C19.3654 8.3302 19.7895 8.53612 19.7904 8.90308C19.7992 10.847 19.7992 14.6873 19.7992 14.6873Z" fill="#1A1926"/>
<path d="M19.3388 5.65292C18.5767 4.21676 17.0772 3.2998 15.4263 3.2998H6.6439C4.99302 3.2998 3.4935 4.21676 2.73142 5.65292C2.5607 5.97412 2.64166 6.37452 2.9259 6.60156L9.4599 11.8279C9.9175 12.1975 10.4719 12.3814 11.0263 12.3814C11.0298 12.3814 11.0325 12.3814 11.0351 12.3814C11.0377 12.3814 11.0413 12.3814 11.0439 12.3814C11.5983 12.3814 12.1527 12.1975 12.6103 11.8279L19.1443 6.60156C19.4285 6.37452 19.5095 5.97412 19.3388 5.65292Z" fill="#1A1926"/>
</svg>
