<svg width="22" height="22" viewBox="0 0 22 22" fill="none" xmlns="http://www.w3.org/2000/svg">
<path fill-rule="evenodd" clip-rule="evenodd" d="M5.62144 9.04463C7.51147 9.04463 9.04365 7.51245 9.04365 5.62241C9.04365 3.73237 7.51147 2.2002 5.62144 2.2002C3.7314 2.2002 2.19922 3.73237 2.19922 5.62241C2.19922 7.51245 3.7314 9.04463 5.62144 9.04463ZM5.62144 19.8002C7.51147 19.8002 9.04365 18.268 9.04365 16.378C9.04365 14.4879 7.51147 12.9557 5.62144 12.9557C3.7314 12.9557 2.19922 14.4879 2.19922 16.378C2.19922 18.268 3.7314 19.8002 5.62144 19.8002ZM19.7992 5.62241C19.7992 7.51245 18.267 9.04463 16.377 9.04463C14.487 9.04463 12.9548 7.51245 12.9548 5.62241C12.9548 3.73237 14.487 2.2002 16.377 2.2002C18.267 2.2002 19.7992 3.73237 19.7992 5.62241ZM16.377 19.8002C18.267 19.8002 19.7992 18.268 19.7992 16.378C19.7992 14.4879 18.267 12.9557 16.377 12.9557C14.487 12.9557 12.9548 14.4879 12.9548 16.378C12.9548 18.268 14.487 19.8002 16.377 19.8002Z" fill="#1A1926"/>
</svg>
