<svg width="22" height="22" viewBox="0 0 22 22" fill="none" xmlns="http://www.w3.org/2000/svg">
<path fill-rule="evenodd" clip-rule="evenodd" d="M7.53358 2.2002H14.9089C17.6272 2.2002 19.1408 3.7666 19.1408 6.4506V15.541C19.1408 18.269 17.6272 19.8002 14.9089 19.8002H7.53358C4.85838 19.8002 3.30078 18.269 3.30078 15.541V6.4506C3.30078 3.7666 4.85838 2.2002 7.53358 2.2002Z" fill="white"/>
<path opacity="0.25" d="M14.9089 2.2002H7.53358C4.85838 2.2002 3.30078 3.7666 3.30078 6.45059V15.541C3.30078 18.269 4.85838 19.8002 7.53358 19.8002H14.9089C17.6272 19.8002 19.1408 18.269 19.1408 15.541V6.45059C19.1408 3.7666 17.6272 2.2002 14.9089 2.2002Z" fill="#1A1926"/>
<path d="M7.76951 14.2912H14.6687C15.0198 14.3264 15.2847 14.6256 15.2847 14.9864C15.2847 15.3375 15.0198 15.6376 14.6687 15.6728H7.76951C7.50551 15.708 7.25031 15.576 7.10951 15.356C6.96871 15.1272 6.96871 14.8368 7.10951 14.6168C7.25031 14.388 7.50551 14.2648 7.76951 14.2912ZM14.6687 10.2775C15.0471 10.2775 15.3551 10.5864 15.3551 10.9648C15.3551 11.3432 15.0471 11.6512 14.6687 11.6512H7.76951C7.39023 11.6512 7.08311 11.3432 7.08311 10.9648C7.08311 10.5864 7.39023 10.2775 7.76951 10.2775H14.6687ZM10.3998 6.29199C10.7791 6.29199 11.0871 6.59999 11.0871 6.97751C11.0871 7.36559 10.7791 7.67359 10.3998 7.67359H7.76951C7.39023 7.67359 7.08311 7.36559 7.08311 6.98719C7.08311 6.60879 7.39023 6.30079 7.76951 6.30079V6.29199H10.3998Z" fill="#1A1926"/>
</svg>
