<svg width="22" height="24" viewBox="0 0 22 24" fill="none" xmlns="http://www.w3.org/2000/svg">
<path fill-rule="evenodd" clip-rule="evenodd" d="M16.9018 10.1817C16.9018 11.2869 17.1939 11.9374 17.8367 12.6881C18.3239 13.2411 18.4795 13.9519 18.4795 14.7212C18.4795 15.4914 18.2259 16.2208 17.7195 16.8137C17.0574 17.5245 16.1225 17.9783 15.1683 18.0572C13.7847 18.175 12.4019 18.2743 11 18.2743C9.59711 18.2743 8.21437 18.2149 6.83163 18.0572C5.87657 17.9783 4.94163 17.5245 4.27956 16.8137C3.77229 16.2208 3.51953 15.4914 3.51953 14.7212C3.51953 13.9519 3.67521 13.2411 4.16236 12.6881C4.82443 11.9374 5.09731 11.2869 5.09731 10.1817V9.80591C5.09731 8.32582 5.46726 7.35801 6.22729 6.41146C7.35727 5.02887 9.16856 4.2002 10.9606 4.2002H11.0385C12.869 4.2002 14.7389 5.06875 15.8496 6.50984C16.5703 7.43777 16.9018 8.36571 16.9018 9.80591V10.1817ZM9.20671 19.3612C9.64663 19.2672 12.3273 19.2672 12.7672 19.3612C13.1433 19.448 13.55 19.6501 13.55 20.0932C13.5281 20.516 13.2806 20.8891 12.9377 21.1257L12.9386 21.1266C12.4952 21.4723 11.9748 21.6921 11.4308 21.7709C11.13 21.8091 10.8343 21.8108 10.544 21.7709C9.99909 21.6921 9.47871 21.4723 9.03529 21.1266L9.03616 21.1257C8.69332 20.8891 8.44581 20.516 8.42394 20.0932C8.42394 19.6501 8.83063 19.448 9.20671 19.3612Z" fill="white"/>
<path d="M17.8367 12.6881C17.1939 11.9374 16.9018 11.2869 16.9018 10.1817V9.80591C16.9018 8.36571 16.5703 7.43777 15.8496 6.50984C14.7389 5.06875 12.869 4.2002 11.0385 4.2002H10.9606C9.16856 4.2002 7.35727 5.02887 6.22729 6.41146C5.46726 7.35801 5.09731 8.32582 5.09731 9.80591V10.1817C5.09731 11.2869 4.82443 11.9374 4.16236 12.6881C3.67521 13.2411 3.51953 13.9519 3.51953 14.7212C3.51953 15.4914 3.77229 16.2208 4.27956 16.8137C4.94163 17.5245 5.87657 17.9783 6.83163 18.0572C8.21437 18.2149 9.59711 18.2743 11 18.2743C12.4019 18.2743 13.7847 18.175 15.1683 18.0572C16.1225 17.9783 17.0574 17.5245 17.7195 16.8137C18.2259 16.2208 18.4795 15.4914 18.4795 14.7212C18.4795 13.9519 18.3239 13.2411 17.8367 12.6881Z" fill="#1A1926"/>
<path opacity="0.4" d="M12.7671 19.3605C12.3272 19.2666 9.64652 19.2666 9.20659 19.3605C8.83052 19.4474 8.42383 19.6494 8.42383 20.0926C8.44569 20.5153 8.6932 20.8884 9.03605 21.1251L9.03517 21.126C9.47859 21.4716 9.99898 21.6914 10.5439 21.7703C10.8342 21.8102 11.1298 21.8084 11.4307 21.7703C11.9747 21.6914 12.4951 21.4716 12.9385 21.126L12.9376 21.1251C13.2805 20.8884 13.528 20.5153 13.5498 20.0926C13.5498 19.6494 13.1432 19.4474 12.7671 19.3605Z" fill="#1A1926"/>
<path d="M17 9C19.2091 9 21 7.20914 21 5C21 2.79086 19.2091 1 17 1C14.7909 1 13 2.79086 13 5C13 7.20914 14.7909 9 17 9Z" fill="#FF6640" stroke="#F2F4F7" stroke-width="2"/>
</svg>
