<svg width="22" height="22" viewBox="0 0 22 22" fill="none" xmlns="http://www.w3.org/2000/svg">
<path fill-rule="evenodd" clip-rule="evenodd" d="M9.64667 14.5426C9.64667 13.2982 8.64677 12.2898 7.41277 12.2898H4.43312C3.19912 12.2898 2.19922 13.2982 2.19922 14.5426V17.5474C2.19922 18.791 3.19912 19.8002 4.43312 19.8002H7.41277C8.64677 19.8002 9.64667 18.791 9.64667 17.5474V14.5426ZM19.7992 14.5426C19.7992 13.2982 18.7993 12.2898 17.5653 12.2898H14.5857C13.3517 12.2898 12.3518 13.2982 12.3518 14.5426V17.5474C12.3518 18.791 13.3517 19.8002 14.5857 19.8002H17.5653C18.7993 19.8002 19.7992 18.791 19.7992 17.5474V14.5426ZM9.64667 4.45296C9.64667 3.20854 8.64677 2.2002 7.41277 2.2002H4.43312C3.19912 2.2002 2.19922 3.20854 2.19922 4.45296V7.45778C2.19922 8.70219 3.19912 9.71054 4.43312 9.71054H7.41277C8.64677 9.71054 9.64667 8.70219 9.64667 7.45778V4.45296ZM17.5653 2.2002H14.5857C13.3517 2.2002 12.3518 3.20854 12.3518 4.45296V7.45778C12.3518 8.7022 13.3517 9.71054 14.5857 9.71054H17.5653C18.7993 9.71054 19.7992 8.7022 19.7992 7.45778V4.45296C19.7992 3.20854 18.7993 2.2002 17.5653 2.2002Z" fill="white"/>
<path opacity="0.4" d="M14.5874 2.2002H17.5671C18.8011 2.2002 19.801 3.20854 19.801 4.45296V7.45778C19.801 8.7022 18.8011 9.71054 17.5671 9.71054H14.5874C13.3534 9.71054 12.3535 8.7022 12.3535 7.45778V4.45296C12.3535 3.20854 13.3534 2.2002 14.5874 2.2002Z" fill="#1A1926"/>
<path d="M7.41277 12.2898C8.64677 12.2898 9.64667 13.2982 9.64667 14.5426V17.5474C9.64667 18.791 8.64677 19.8002 7.41277 19.8002H4.43312C3.19912 19.8002 2.19922 18.791 2.19922 17.5474V14.5426C2.19922 13.2982 3.19912 12.2898 4.43312 12.2898H7.41277ZM17.5653 12.2898C18.7993 12.2898 19.7992 13.2982 19.7992 14.5426V17.5474C19.7992 18.791 18.7993 19.8002 17.5653 19.8002H14.5857C13.3517 19.8002 12.3518 18.791 12.3518 17.5474V14.5426C12.3518 13.2982 13.3517 12.2898 14.5857 12.2898H17.5653ZM7.41277 2.2002C8.64677 2.2002 9.64667 3.20854 9.64667 4.45296V7.45778C9.64667 8.70219 8.64677 9.71054 7.41277 9.71054H4.43312C3.19912 9.71054 2.19922 8.70219 2.19922 7.45778V4.45296C2.19922 3.20854 3.19912 2.2002 4.43312 2.2002H7.41277Z" fill="#1A1926"/>
</svg>
