<svg width="22" height="22" viewBox="0 0 22 22" fill="none" xmlns="http://www.w3.org/2000/svg">
<path fill-rule="evenodd" clip-rule="evenodd" d="M14.7068 4.4726C14.5413 3.19421 13.4575 2.2002 12.1359 2.2002H9.86263C8.54022 2.2002 7.45728 3.19421 7.29176 4.4726H5.55994C3.70663 4.4726 2.19932 5.97638 2.19932 7.8253V10.1929H2.19922C2.19925 10.1944 2.19929 10.196 2.19932 10.1976V10.8769C2.19932 10.9322 2.20622 10.9867 2.21946 11.0392C2.27287 13.0957 2.36874 15.8216 2.38411 16.1605C2.44662 16.9907 2.76446 17.8298 3.25926 18.4214C3.94776 19.2517 4.79562 19.6223 5.97805 19.6223C7.61214 19.6312 9.41351 19.6312 11.1629 19.6312C12.9194 19.6312 14.6239 19.6312 16.0634 19.6223C17.2291 19.6223 18.1034 19.242 18.7831 18.4214C19.2779 17.8298 19.5958 16.9819 19.6407 16.1605C19.6501 15.9855 19.6797 14.8076 19.7133 13.4719L19.7134 13.4713L19.7134 13.4709C19.7338 12.6599 19.7556 11.7908 19.7753 11.0527C19.791 10.9961 19.7992 10.9371 19.7992 10.8769V7.8253C19.7992 5.97638 18.2954 4.4726 16.4474 4.4726H14.7068ZM9.86263 3.52085H12.1359C12.7276 3.52085 13.2224 3.92585 13.3703 4.4726H8.62738C8.77529 3.92585 9.2701 3.52085 9.86263 3.52085Z" fill="white"/>
<path opacity="0.3" d="M2.19922 10.1924C2.24324 12.2508 2.3665 15.7717 2.38411 16.16C2.44662 16.9902 2.76446 17.8293 3.25926 18.4209C3.94776 19.2512 4.79562 19.6218 5.97805 19.6218C7.61214 19.6307 9.41351 19.6307 11.1629 19.6307C12.9194 19.6307 14.6239 19.6307 16.0634 19.6218C17.2291 19.6218 18.1034 19.2415 18.7831 18.4209C19.2779 17.8293 19.5958 16.9814 19.6407 16.16C19.6583 15.8333 19.7463 12.0114 19.7991 10.1924H2.19922Z" fill="#1A1926"/>
<path d="M10.3398 13.9836V15.1229C10.3398 15.4874 10.6357 15.7832 11.0002 15.7832C11.3647 15.7832 11.6605 15.4874 11.6605 15.1229V13.9836C11.6605 13.6191 11.3647 13.3232 11.0002 13.3232C10.6357 13.3232 10.3398 13.6191 10.3398 13.9836Z" fill="#1A1926"/>
<path d="M12.1358 2.2002C13.4574 2.2002 14.5412 3.19421 14.7067 4.4726H16.4473C18.2953 4.4726 19.7991 5.97638 19.7991 7.8253V10.8769C19.7991 11.0988 19.6873 11.3057 19.5033 11.428C17.6878 12.6298 15.5325 13.4302 13.2716 13.7427C13.2408 13.7471 13.2108 13.7489 13.1809 13.7489C12.8824 13.7489 12.6157 13.5473 12.5408 13.2514C12.363 12.5506 11.7264 12.0602 10.9948 12.0602C10.2534 12.0602 9.62393 12.54 9.42848 13.2549C9.34043 13.5745 9.03316 13.7788 8.70036 13.7348C6.45437 13.4213 4.30786 12.6246 2.49593 11.428C2.31015 11.3065 2.19922 11.0988 2.19922 10.8769V7.8253C2.19922 5.97638 3.70653 4.4726 5.55984 4.4726H7.29166C7.45718 3.19421 8.54012 2.2002 9.86253 2.2002H12.1358ZM12.1358 3.52085H9.86253C9.27 3.52085 8.77519 3.92585 8.62728 4.4726H13.3702C13.2223 3.92585 12.7275 3.52085 12.1358 3.52085Z" fill="#1A1926"/>
</svg>
