<svg width="22" height="22" viewBox="0 0 22 22" fill="none" xmlns="http://www.w3.org/2000/svg">
<path fill-rule="evenodd" clip-rule="evenodd" d="M10.3529 3.8502C6.76059 3.8502 3.84922 6.76157 3.84922 10.3539C3.84922 13.9462 6.76059 16.8575 10.3529 16.8575C12.0769 16.8575 13.6428 16.1878 14.8074 15.0926C16.0699 13.9053 16.8566 12.2222 16.8566 10.3539C16.8566 6.76163 13.9444 3.8502 10.3529 3.8502ZM2.19922 10.3539C2.19922 5.8503 5.84932 2.2002 10.3529 2.2002C14.8556 2.2002 18.5066 5.85024 18.5066 10.3539C18.5066 12.3987 17.7531 14.2683 16.5103 15.6989L19.0606 18.4099C19.3728 18.7418 19.3569 19.2639 19.025 19.5761C18.6931 19.8883 18.171 19.8723 17.8588 19.5405L15.3084 16.8293C13.9352 17.8815 12.2164 18.5075 10.3529 18.5075C5.84932 18.5075 2.19922 14.8574 2.19922 10.3539Z" fill="#1A1926"/>
<path d="M6.97011 12.1004C6.73254 11.6003 6.59961 11.0409 6.59961 10.4504C6.59961 9.04991 7.34738 7.82408 8.46544 7.15039" stroke="white" stroke-width="1.5" stroke-linecap="round"/>
<path opacity="0.4" d="M6.97011 12.1004C6.73254 11.6003 6.59961 11.0409 6.59961 10.4504C6.59961 9.04991 7.34738 7.82408 8.46544 7.15039" stroke="#1A1926" stroke-width="1.5" stroke-linecap="round"/>
</svg>
