<svg width="22" height="22" viewBox="0 0 22 22" fill="none" xmlns="http://www.w3.org/2000/svg">
<path fill-rule="evenodd" clip-rule="evenodd" d="M18.3947 12.3906C18.7095 12.5578 18.9523 12.8218 19.1231 13.0858C19.4559 13.6314 19.4289 14.3002 19.1052 14.8898L18.4756 15.9458C18.1429 16.509 17.5223 16.861 16.8838 16.861C16.5691 16.861 16.2183 16.773 15.9305 16.597C15.6967 16.4474 15.4269 16.3946 15.1391 16.3946C14.2488 16.3946 13.5024 17.125 13.4754 17.9962C13.4754 19.0082 12.648 19.8002 11.6138 19.8002H10.3907C9.34751 19.8002 8.52013 19.0082 8.52013 17.9962C8.50214 17.125 7.7557 16.3946 6.86538 16.3946C6.5686 16.3946 6.2988 16.4474 6.07397 16.597C5.78619 16.773 5.42646 16.861 5.12069 16.861C4.47318 16.861 3.85264 16.509 3.5199 15.9458L2.89936 14.8898C2.56661 14.3178 2.54863 13.6314 2.88138 13.0858C3.02527 12.8218 3.29506 12.5578 3.60083 12.3906C3.85264 12.2674 4.01452 12.065 4.16741 11.8274C4.61707 11.0706 4.34727 10.0762 3.58285 9.62739C2.69252 9.12579 2.40474 8.00819 2.91735 7.13699L3.5199 6.09859C4.0415 5.22739 5.15666 4.9194 6.05598 5.4298C6.8384 5.8522 7.85463 5.5706 8.31328 4.8226C8.45718 4.5762 8.53812 4.3122 8.52013 4.0482C8.50214 3.705 8.60107 3.3794 8.77194 3.1154C9.10469 2.5698 9.70723 2.2178 10.3637 2.2002H11.6318C12.2973 2.2002 12.8998 2.5698 13.2326 3.1154C13.3945 3.3794 13.5024 3.705 13.4754 4.0482C13.4574 4.3122 13.5383 4.5762 13.6822 4.8226C14.1409 5.5706 15.1571 5.8522 15.9485 5.4298C16.8389 4.9194 17.963 5.22739 18.4756 6.09859L19.0782 7.13699C19.5998 8.00819 19.312 9.12579 18.4127 9.62739C17.6483 10.0762 17.3785 11.0706 17.8371 11.8274C17.981 12.065 18.1429 12.2674 18.3947 12.3906Z" fill="white"/>
<path d="M11.0111 13.4906C9.59917 13.4906 8.45703 12.3906 8.45703 11.009C8.45703 9.62735 9.59917 8.51855 11.0111 8.51855C12.423 8.51855 13.5382 9.62735 13.5382 11.009C13.5382 12.3906 12.423 13.4906 11.0111 13.4906Z" fill="#1A1926"/>
<path opacity="0.25" d="M19.1231 13.0858C18.9523 12.8218 18.7095 12.5578 18.3947 12.3906C18.1429 12.2674 17.981 12.065 17.8371 11.8274C17.3785 11.0706 17.6483 10.0762 18.4127 9.62739C19.312 9.12579 19.5998 8.0082 19.0782 7.137L18.4756 6.09859C17.963 5.22739 16.8389 4.9194 15.9485 5.4298C15.1571 5.8522 14.1409 5.5706 13.6822 4.8226C13.5383 4.5762 13.4574 4.3122 13.4754 4.0482C13.5024 3.705 13.3945 3.3794 13.2326 3.1154C12.8998 2.5698 12.2973 2.2002 11.6318 2.2002H10.3637C9.70723 2.2178 9.10469 2.5698 8.77194 3.1154C8.60107 3.3794 8.50214 3.705 8.52013 4.0482C8.53811 4.3122 8.45718 4.5762 8.31328 4.8226C7.85463 5.5706 6.8384 5.8522 6.05598 5.4298C5.15666 4.9194 4.0415 5.22739 3.5199 6.09859L2.91735 7.137C2.40474 8.0082 2.69252 9.12579 3.58285 9.62739C4.34727 10.0762 4.61707 11.0706 4.16741 11.8274C4.01452 12.065 3.85264 12.2674 3.60083 12.3906C3.29506 12.5578 3.02527 12.8218 2.88138 13.0858C2.54863 13.6314 2.56661 14.3178 2.89936 14.8898L3.5199 15.9458C3.85264 16.509 4.47318 16.861 5.12069 16.861C5.42646 16.861 5.78619 16.773 6.07397 16.597C6.2988 16.4474 6.5686 16.3946 6.86537 16.3946C7.7557 16.3946 8.50214 17.125 8.52013 17.9962C8.52013 19.0082 9.34751 19.8002 10.3907 19.8002H11.6138C12.648 19.8002 13.4754 19.0082 13.4754 17.9962C13.5024 17.125 14.2488 16.3946 15.1391 16.3946C15.4269 16.3946 15.6967 16.4474 15.9305 16.597C16.2183 16.773 16.5691 16.861 16.8838 16.861C17.5223 16.861 18.1429 16.509 18.4756 15.9458L19.1052 14.8898C19.4289 14.3002 19.4559 13.6314 19.1231 13.0858Z" fill="#1A1926"/>
</svg>
