<svg width="22" height="22" viewBox="0 0 22 22" fill="none" xmlns="http://www.w3.org/2000/svg">
<path fill-rule="evenodd" clip-rule="evenodd" d="M7.18882 2.2002H14.8184C17.8016 2.2002 19.7992 4.2946 19.7992 7.4098V14.5994C19.7992 17.7058 17.8016 19.8002 14.8184 19.8002H7.18882C4.20562 19.8002 2.19922 17.7058 2.19922 14.5994V7.4098C2.19922 4.2946 4.20562 2.2002 7.18882 2.2002Z" fill="white"/>
<path opacity="0.25" d="M14.8184 2.2002H7.18882C4.20562 2.2002 2.19922 4.2946 2.19922 7.40979V14.5994C2.19922 17.7058 4.20562 19.8002 7.18882 19.8002H14.8184C17.8016 19.8002 19.7992 17.7058 19.7992 14.5994V7.40979C19.7992 4.2946 17.8016 2.2002 14.8184 2.2002Z" fill="#1A1926"/>
<path d="M9.95634 13.8585C9.75922 13.8585 9.5621 13.7837 9.41162 13.6332L7.32338 11.545C7.02242 11.244 7.02242 10.7565 7.32338 10.4564C7.62434 10.1555 8.11098 10.1546 8.41194 10.4556L9.95634 12L13.589 8.36732C13.8899 8.06636 14.3766 8.06636 14.6775 8.36732C14.9785 8.66828 14.9785 9.1558 14.6775 9.45676L10.5011 13.6332C10.3506 13.7837 10.1535 13.8585 9.95634 13.8585Z" fill="#1A1926"/>
</svg>
