<svg width="64" height="64" viewBox="0 0 64 64" fill="none" xmlns="http://www.w3.org/2000/svg">
<g filter="url(#filter0_d_864_1169)">
<path fill-rule="evenodd" clip-rule="evenodd" d="M32 0C45.2548 0 56 10.7452 56 24C56 37.2548 45.2548 48 32 48C18.7452 48 8 37.2548 8 24C8 10.7452 18.7452 0 32 0Z" fill="#49B2F2"/>
<path d="M28.7235 33.4287C37.1336 33.4287 41.7328 26.5043 41.7328 20.4997C41.7328 20.303 41.7287 20.1073 41.7198 19.9123C42.6147 19.2688 43.387 18.472 44.0006 17.5593C43.1813 17.9213 42.2997 18.1649 41.3748 18.2747C42.3188 17.7122 43.0435 16.8222 43.3855 15.7614C42.4879 16.2905 41.506 16.6636 40.4821 16.8644C39.6477 15.9811 38.4599 15.4287 37.1446 15.4287C34.6196 15.4287 32.572 17.4637 32.572 19.9721C32.572 20.3288 32.6122 20.6755 32.6906 21.0083C28.8905 20.8182 25.5209 19.01 23.2657 16.2606C22.8595 16.954 22.6459 17.7422 22.6466 18.5445C22.6466 20.121 23.4538 21.5128 24.6813 22.327C23.9552 22.3049 23.245 22.11 22.6105 21.7586C22.6099 21.7777 22.6099 21.7963 22.6099 21.8167C22.6099 24.0173 24.1859 25.8547 26.278 26.2711C25.8851 26.3774 25.4796 26.4312 25.0724 26.4309C24.7783 26.4309 24.4916 26.4022 24.2131 26.349C24.7952 28.1545 26.4831 29.4684 28.4843 29.5051C26.9194 30.7241 24.948 31.4502 22.8055 31.4502C22.441 31.4505 22.0768 31.4295 21.7148 31.3872C23.7384 32.6763 26.1412 33.4284 28.7237 33.4284" fill="white"/>
</g>
<defs>
<filter id="filter0_d_864_1169" x="0" y="0" width="64" height="64" filterUnits="userSpaceOnUse" color-interpolation-filters="sRGB">
<feFlood flood-opacity="0" result="BackgroundImageFix"/>
<feColorMatrix in="SourceAlpha" type="matrix" values="0 0 0 0 0 0 0 0 0 0 0 0 0 0 0 0 0 0 127 0" result="hardAlpha"/>
<feOffset dy="8"/>
<feGaussianBlur stdDeviation="4"/>
<feComposite in2="hardAlpha" operator="out"/>
<feColorMatrix type="matrix" values="0 0 0 0 0.234062 0 0 0 0 0.642633 0 0 0 0 0.891667 0 0 0 0.07 0"/>
<feBlend mode="normal" in2="BackgroundImageFix" result="effect1_dropShadow_864_1169"/>
<feBlend mode="normal" in="SourceGraphic" in2="effect1_dropShadow_864_1169" result="shape"/>
</filter>
</defs>
</svg>
